<svg width="646" height="534" viewBox="0 0 646 534" fill="none" xmlns="http://www.w3.org/2000/svg">
<path opacity="0.150019" fill-rule="evenodd" clip-rule="evenodd" d="M458.452 204.924L542.232 121.374C545.845 117.77 551.695 117.77 555.309 121.374L639.088 204.924C642.708 208.534 642.716 214.394 639.105 218.013C639.099 218.018 639.094 218.023 639.088 218.029L555.309 301.578C551.695 305.182 545.845 305.182 542.232 301.578L458.452 218.029C454.832 214.419 454.824 208.559 458.436 204.94C458.441 204.934 458.446 204.929 458.452 204.924Z" fill="#BFE7FF"/>
<g opacity="0.0375744" filter="url(#filter0_f_736_1002)">
<path fill-rule="evenodd" clip-rule="evenodd" d="M172.39 53.2036L219.071 6.65116C222.684 3.04738 228.534 3.04738 232.148 6.65117L278.828 53.2036C282.448 56.8137 282.456 62.6739 278.845 66.2929C278.839 66.2982 278.834 66.3036 278.828 66.309L232.148 112.861C228.534 116.465 222.684 116.465 219.071 112.861L172.39 66.3089C168.77 62.6989 168.762 56.8386 172.374 53.2197C172.379 53.2143 172.384 53.209 172.39 53.2036Z" fill="#7367F0"/>
</g>
<path opacity="0.0659412" fill-rule="evenodd" clip-rule="evenodd" d="M220.972 209.616L395.062 36.0039C398.676 32.4001 404.526 32.4001 408.139 36.0039L582.23 209.616C585.85 213.226 585.857 219.086 582.246 222.705C582.241 222.71 582.235 222.716 582.23 222.721L408.139 396.333C404.526 399.937 398.676 399.937 395.062 396.333L220.972 222.721C217.352 219.111 217.345 213.251 220.956 209.632C220.961 209.627 220.966 209.621 220.972 209.616Z" fill="#7367F0"/>
<path opacity="0.0895647" d="M91.3077 218.869C95.2388 214.939 101.605 214.932 105.526 218.852L216.292 329.585C220.214 333.506 220.206 339.869 216.275 343.799L105.236 454.805C101.305 458.735 94.9391 458.743 91.0177 454.823L-19.7485 344.089C-23.6699 340.169 -23.6621 333.805 -19.731 329.875L91.3077 218.869ZM98.3555 268.61L30.024 336.921L98.1878 405.065L166.519 336.753L98.3555 268.61Z" fill="#7367F0"/>
<path fill-rule="evenodd" clip-rule="evenodd" d="M158.806 316.989L158.806 450.053L158.941 449.921L158.91 456.522L235.446 532.597H225.244L158.806 466.527L158.806 532.56H150.748L150.747 469.046L86.8835 532.597H75.6739L150.747 457.957L150.748 316.989H158.806Z" fill="url(#paint0_linear_736_1002)"/>
<path fill-rule="evenodd" clip-rule="evenodd" d="M169.287 446.936H141.274C138.717 446.936 136.645 449.008 136.645 451.564V458.426C136.645 460.982 138.717 463.054 141.274 463.054H169.287C171.844 463.054 173.916 460.982 173.916 458.426V451.564C173.916 449.008 171.844 446.936 169.287 446.936Z" fill="#C8DAFF"/>
<path fill-rule="evenodd" clip-rule="evenodd" d="M92.1072 129.102H233.343C235.984 129.102 238.126 131.235 238.126 133.866V369.375C238.126 371.933 236.102 374.02 233.562 374.134L233.324 374.138L92.0886 373.592C89.4544 373.581 87.3243 371.452 87.3243 368.828V133.866C87.3243 131.235 89.4657 129.102 92.1072 129.102Z" fill="#AFA7FF"/>
<path fill-rule="evenodd" clip-rule="evenodd" d="M85.1897 129.102H226.425C229.067 129.102 231.208 131.235 231.208 133.866V369.375C231.208 371.933 229.184 374.02 226.644 374.134L226.407 374.138L85.1711 373.592C82.5369 373.581 80.4068 371.452 80.4068 368.828V133.866C80.4068 131.235 82.5482 129.102 85.1897 129.102Z" fill="#141A2B"/>
<path fill-rule="evenodd" clip-rule="evenodd" d="M92.0065 134.023H219.413C222.435 134.023 224.885 136.463 224.885 139.472V361.819C224.885 364.828 222.435 367.268 219.413 367.268H92.0065C88.9846 367.268 86.5348 364.828 86.5348 361.819V139.472C86.5348 136.463 88.9846 134.023 92.0065 134.023Z" fill="#283046"/>
<path fill-rule="evenodd" clip-rule="evenodd" d="M131.993 360.379H170.533C172.716 360.379 174.486 362.141 174.486 364.315V377.109H131.993C129.81 377.109 128.04 375.347 128.04 373.173V364.315C128.04 362.141 129.81 360.379 131.993 360.379Z" fill="#A7C3FF"/>
<path fill-rule="evenodd" clip-rule="evenodd" d="M173.498 373.173H177.451V377.109H173.498V373.173Z" fill="#A7C3FF"/>
<path fill-rule="evenodd" clip-rule="evenodd" d="M130.016 360.379H168.557C170.74 360.379 172.509 362.141 172.509 364.315V373.173C172.509 375.347 170.74 377.109 168.557 377.109H130.016C127.833 377.109 126.063 375.347 126.063 373.173V364.315C126.063 362.141 127.833 360.379 130.016 360.379Z" fill="#C8DAFF"/>
<path d="M358.907 157.794H296.272V229.756H358.907V157.794Z" fill="#91D6FF"/>
<path d="M354.026 157.794H291.391V229.756H354.026V157.794Z" fill="#E3F4FF"/>
<path fill-rule="evenodd" clip-rule="evenodd" d="M302.415 166.284H343.002C345.047 166.284 346.705 167.942 346.705 169.986V217.968C346.705 220.013 345.047 221.671 343.002 221.671H302.415C300.37 221.671 298.712 220.013 298.712 217.968V169.986C298.712 167.942 300.37 166.284 302.415 166.284Z" fill="#313A53"/>
<path fill-rule="evenodd" clip-rule="evenodd" d="M302.415 166.284H303.593V221.671H302.415C300.37 221.671 298.712 220.013 298.712 217.968V169.986C298.712 167.942 300.37 166.284 302.415 166.284Z" fill="#91D6FF"/>
<path fill-rule="evenodd" clip-rule="evenodd" d="M338.25 206.178L322.226 178.265C322.123 178.087 321.895 178.025 321.716 178.127C321.657 178.161 321.608 178.211 321.575 178.271L306.206 206.183C306.106 206.364 306.172 206.591 306.353 206.69C306.408 206.721 306.47 206.736 306.533 206.736H337.926C338.132 206.736 338.299 206.569 338.299 206.363C338.299 206.298 338.282 206.234 338.25 206.178Z" fill="#83F2D5"/>
<path opacity="0.44687" fill-rule="evenodd" clip-rule="evenodd" d="M340.265 195.306L331.576 180.266C331.473 180.088 331.245 180.027 331.066 180.13C331.007 180.163 330.959 180.213 330.926 180.272L322.593 195.312C322.493 195.492 322.558 195.719 322.738 195.819C322.794 195.85 322.856 195.866 322.919 195.866H339.941C340.148 195.866 340.315 195.699 340.315 195.493C340.315 195.427 340.297 195.363 340.265 195.306Z" fill="#63CBE8"/>
<path d="M448.712 157.794H386.077V229.756H448.712V157.794Z" fill="#91D6FF"/>
<path d="M443.831 157.794H381.196V229.756H443.831V157.794Z" fill="#E3F4FF"/>
<path fill-rule="evenodd" clip-rule="evenodd" d="M392.22 166.284H432.807C434.852 166.284 436.51 167.942 436.51 169.986V217.968C436.51 220.013 434.852 221.671 432.807 221.671H392.22C390.175 221.671 388.517 220.013 388.517 217.968V169.986C388.517 167.942 390.175 166.284 392.22 166.284Z" fill="#313A53"/>
<path d="M423.902 184.477H399.905V208.329H423.902V184.477Z" fill="#83F2D5"/>
<path opacity="0.44687" d="M431.223 175.178H412.92V193.371H431.223V175.178Z" fill="#63CBE8"/>
<path fill-rule="evenodd" clip-rule="evenodd" d="M392.22 166.284H393.398V221.671H392.22C390.175 221.671 388.517 220.013 388.517 217.968V169.986C388.517 167.942 390.175 166.284 392.22 166.284Z" fill="#91D6FF"/>
<path d="M537.591 157.794H474.956V229.756H537.591V157.794Z" fill="#91D6FF"/>
<path d="M532.71 157.794H470.075V229.756H532.71V157.794Z" fill="#E3F4FF"/>
<path fill-rule="evenodd" clip-rule="evenodd" d="M481.099 166.284H521.686C523.731 166.284 525.389 167.942 525.389 169.986V217.968C525.389 220.013 523.731 221.671 521.686 221.671H481.099C479.054 221.671 477.396 220.013 477.396 217.968V169.986C477.396 167.942 479.054 166.284 481.099 166.284Z" fill="#313A53"/>
<path d="M502.003 213.181C511.325 213.181 518.882 205.669 518.882 196.403C518.882 187.137 511.325 179.625 502.003 179.625C492.681 179.625 485.124 187.137 485.124 196.403C485.124 205.669 492.681 213.181 502.003 213.181Z" fill="#83F2D5"/>
<path opacity="0.44687" d="M510.137 191.754C514.967 191.754 518.882 187.862 518.882 183.062C518.882 178.261 514.967 174.37 510.137 174.37C505.308 174.37 501.393 178.261 501.393 183.062C501.393 187.862 505.308 191.754 510.137 191.754Z" fill="#63CBE8"/>
<path fill-rule="evenodd" clip-rule="evenodd" d="M481.099 166.284H482.277V221.671H481.099C479.054 221.671 477.396 220.013 477.396 217.968V169.986C477.396 167.942 479.054 166.284 481.099 166.284Z" fill="#91D6FF"/>
<g filter="url(#filter1_d_736_1002)">
<path d="M73.2564 286.446H208.512C211.267 286.446 213.501 288.679 213.501 291.433V335.407C213.501 338.162 211.267 340.395 208.512 340.395H73.2564C70.501 340.395 68.2673 338.162 68.2673 335.407V291.433C68.2673 288.679 70.501 286.446 73.2564 286.446Z" fill="black"/>
</g>
<path d="M73.2564 286.446H208.512C211.267 286.446 213.501 288.679 213.501 291.433V335.407C213.501 338.162 211.267 340.395 208.512 340.395H73.2564C70.501 340.395 68.2673 338.162 68.2673 335.407V291.433C68.2673 288.679 70.501 286.446 73.2564 286.446Z" fill="#313A53"/>
<path opacity="0.465472" d="M117.226 316.417H144.416C145.319 316.417 146.051 317.149 146.051 318.052C146.051 318.955 145.319 319.687 144.416 319.687H117.226C116.323 319.687 115.591 318.955 115.591 318.052C115.591 317.149 116.323 316.417 117.226 316.417Z" fill="#FFBF29"/>
<path d="M117.226 307.153H133.537C134.44 307.153 135.173 307.885 135.173 308.788C135.173 309.691 134.44 310.423 133.537 310.423H117.226C116.323 310.423 115.591 309.691 115.591 308.788C115.591 307.885 116.323 307.153 117.226 307.153Z" fill="#FFBF29"/>
<path d="M169.036 307.303C169.503 306.276 170.713 305.822 171.738 306.29C172.077 306.445 172.367 306.69 172.576 306.996L172.651 307.114L176.651 313.93C176.689 313.995 176.772 314.016 176.837 313.978L176.855 313.966L176.87 313.951L178.999 311.54C179.745 310.695 181.034 310.615 181.878 311.363C181.933 311.412 181.986 311.464 182.036 311.519L182.108 311.603L185.23 315.444C185.277 315.502 185.363 315.511 185.421 315.464L185.437 315.448L185.451 315.43L190.381 307.447C190.974 306.488 192.231 306.191 193.189 306.785C193.338 306.877 193.473 306.987 193.593 307.114L193.68 307.211L195.977 309.962C196.315 310.366 196.261 310.968 195.858 311.305C195.477 311.625 194.921 311.595 194.576 311.25L194.517 311.186L192.22 308.435C192.211 308.424 192.2 308.414 192.187 308.407C192.134 308.374 192.067 308.382 192.023 308.423L192 308.451L187.07 316.433C186.95 316.627 186.799 316.799 186.623 316.943C185.78 317.631 184.553 317.532 183.829 316.736L183.753 316.648L180.632 312.808C180.627 312.802 180.622 312.797 180.617 312.792C180.57 312.75 180.502 312.747 180.452 312.78L180.425 312.804L178.296 315.214C178.154 315.376 177.987 315.513 177.802 315.622C176.863 316.175 175.664 315.89 175.069 314.992L175.01 314.896L171.01 308.081C170.995 308.057 170.974 308.038 170.949 308.026C170.892 308 170.826 308.017 170.788 308.063L170.769 308.094L166.871 316.662C166.726 316.981 166.501 317.257 166.22 317.464L166.112 317.538L161.49 320.489C161.047 320.773 160.459 320.642 160.176 320.198C159.909 319.779 160.011 319.229 160.396 318.931L160.467 318.881L165.088 315.93C165.103 315.92 165.116 315.908 165.126 315.894L165.139 315.871L169.036 307.303Z" fill="#FFBF29"/>
<path d="M95.1926 325.136C101.351 325.136 106.343 320.135 106.343 313.965C106.343 307.795 101.351 302.794 95.1926 302.794C89.0341 302.794 84.0417 307.795 84.0417 313.965C84.0417 320.135 89.0341 325.136 95.1926 325.136Z" fill="#FFBF29"/>
<g filter="url(#filter2_d_736_1002)">
<path d="M75.6739 146.688H205.731C209.821 146.688 213.137 150.003 213.137 154.092V261.655C213.137 265.744 209.821 269.059 205.731 269.059H75.6739C71.5834 269.059 68.2673 265.744 68.2673 261.655V154.092C68.2673 150.003 71.5834 146.688 75.6739 146.688Z" fill="black"/>
</g>
<path d="M75.6739 146.688H205.731C209.821 146.688 213.137 150.003 213.137 154.092V261.655C213.137 265.744 209.821 269.059 205.731 269.059H75.6739C71.5834 269.059 68.2673 265.744 68.2673 261.655V154.092C68.2673 150.003 71.5834 146.688 75.6739 146.688Z" fill="#313A53"/>
<mask id="mask0_736_1002" style="mask-type:luminance" maskUnits="userSpaceOnUse" x="68" y="146" width="146" height="124">
<g opacity="0.414737">
<path d="M75.6739 146.688H205.731C209.821 146.688 213.137 150.003 213.137 154.092V261.655C213.137 265.744 209.821 269.059 205.731 269.059H75.6739C71.5834 269.059 68.2673 265.744 68.2673 261.655V154.092C68.2673 150.003 71.5834 146.688 75.6739 146.688Z" fill="#FFE3B5"/>
</g>
</mask>
<g mask="url(#mask0_736_1002)">
<path opacity="0.414737" fill-rule="evenodd" clip-rule="evenodd" d="M87.6479 239.282C99.1039 236.008 107.358 231.029 112.409 224.345C119.986 214.32 122.54 204.603 135.572 204.603C148.603 204.603 150.274 219.485 164.361 219.485C178.449 219.485 179.219 200.506 183.901 192.97C187.023 187.945 191.277 185.433 196.664 185.433V249.995C196.664 250.894 195.934 251.624 195.034 251.624H89.2774C88.3774 251.624 87.6479 250.894 87.6479 249.995V239.282Z" fill="#FFE3B5"/>
</g>
<mask id="mask1_736_1002" style="mask-type:luminance" maskUnits="userSpaceOnUse" x="68" y="146" width="146" height="124">
<path d="M75.6739 146.688H205.731C209.821 146.688 213.137 150.003 213.137 154.092V261.655C213.137 265.744 209.821 269.059 205.731 269.059H75.6739C71.5834 269.059 68.2673 265.744 68.2673 261.655V154.092C68.2673 150.003 71.5834 146.688 75.6739 146.688Z" fill="#FFBF29"/>
</mask>
<g mask="url(#mask1_736_1002)">
<path d="M124.794 158.796H79.5727V163.639H124.794V158.796Z" fill="#FFBF29"/>
</g>
<mask id="mask2_736_1002" style="mask-type:luminance" maskUnits="userSpaceOnUse" x="68" y="146" width="146" height="124">
<g opacity="0.465472">
<path d="M75.6739 146.688H205.731C209.821 146.688 213.137 150.003 213.137 154.092V261.655C213.137 265.744 209.821 269.059 205.731 269.059H75.6739C71.5834 269.059 68.2673 265.744 68.2673 261.655V154.092C68.2673 150.003 71.5834 146.688 75.6739 146.688Z" fill="#FFBF29"/>
</g>
</mask>
<g mask="url(#mask2_736_1002)">
<path opacity="0.465472" d="M81.995 170.904H98.146C99.4838 170.904 100.568 171.988 100.568 173.325C100.568 174.663 99.4838 175.747 98.146 175.747H81.995C80.6572 175.747 79.5727 174.663 79.5727 173.325C79.5727 171.988 80.6572 170.904 81.995 170.904Z" fill="#FFBF29"/>
</g>
<mask id="mask3_736_1002" style="mask-type:luminance" maskUnits="userSpaceOnUse" x="68" y="146" width="146" height="124">
<path d="M75.6739 146.688H205.731C209.821 146.688 213.137 150.003 213.137 154.092V261.655C213.137 265.744 209.821 269.059 205.731 269.059H75.6739C71.5834 269.059 68.2673 265.744 68.2673 261.655V154.092C68.2673 150.003 71.5834 146.688 75.6739 146.688Z" fill="white"/>
</mask>
<g mask="url(#mask3_736_1002)">
<path fill-rule="evenodd" clip-rule="evenodd" d="M184.955 164.446C186.516 164.446 187.781 163.181 187.781 161.621C187.781 160.061 186.516 158.796 184.955 158.796C183.394 158.796 182.128 160.061 182.128 161.621C182.128 163.181 183.394 164.446 184.955 164.446Z" fill="white"/>
</g>
<mask id="mask4_736_1002" style="mask-type:luminance" maskUnits="userSpaceOnUse" x="68" y="146" width="146" height="124">
<path d="M75.6739 146.688H205.731C209.821 146.688 213.137 150.003 213.137 154.092V261.655C213.137 265.744 209.821 269.059 205.731 269.059H75.6739C71.5834 269.059 68.2673 265.744 68.2673 261.655V154.092C68.2673 150.003 71.5834 146.688 75.6739 146.688Z" fill="white"/>
</mask>
<g mask="url(#mask4_736_1002)">
<path fill-rule="evenodd" clip-rule="evenodd" d="M193.03 164.446C194.591 164.446 195.856 163.181 195.856 161.621C195.856 160.061 194.591 158.796 193.03 158.796C191.469 158.796 190.203 160.061 190.203 161.621C190.203 163.181 191.469 164.446 193.03 164.446Z" fill="white"/>
</g>
<mask id="mask5_736_1002" style="mask-type:luminance" maskUnits="userSpaceOnUse" x="68" y="146" width="146" height="124">
<path d="M75.6739 146.688H205.731C209.821 146.688 213.137 150.003 213.137 154.092V261.655C213.137 265.744 209.821 269.059 205.731 269.059H75.6739C71.5834 269.059 68.2673 265.744 68.2673 261.655V154.092C68.2673 150.003 71.5834 146.688 75.6739 146.688Z" fill="white"/>
</mask>
<g mask="url(#mask5_736_1002)">
<path fill-rule="evenodd" clip-rule="evenodd" d="M201.105 164.446C202.666 164.446 203.931 163.181 203.931 161.621C203.931 160.061 202.666 158.796 201.105 158.796C199.544 158.796 198.279 160.061 198.279 161.621C198.279 163.181 199.544 164.446 201.105 164.446Z" fill="white"/>
</g>
<path fill-rule="evenodd" clip-rule="evenodd" d="M406.175 519.042L369.118 517.008H357.754L320.548 519.043C319.723 519.088 319.077 519.77 319.077 520.595V523.354H407.645V520.595C407.645 519.769 406.999 519.088 406.175 519.042Z" fill="#BFE7FF"/>
<path fill-rule="evenodd" clip-rule="evenodd" d="M367.579 453.967H359.144V517.431H367.579V453.967Z" fill="#BFE7FF"/>
<path d="M357.035 508.546H369.687V523.354H357.035V508.546Z" fill="#91D6FF"/>
<path fill-rule="evenodd" clip-rule="evenodd" d="M373.127 449.313H353.595C353.166 449.313 352.817 449.661 352.817 450.09V456.826C352.817 457.143 353.011 457.429 353.305 457.547L357.95 459.411C358.042 459.448 358.14 459.467 358.239 459.467H368.483C368.582 459.467 368.68 459.448 368.772 459.411L373.417 457.547C373.712 457.429 373.905 457.143 373.905 456.826V450.09C373.905 449.661 373.557 449.313 373.127 449.313Z" fill="#91D6FF"/>
<path d="M401.318 523.354H409.753V531.816H401.318V523.354Z" fill="#91D6FF"/>
<path d="M316.969 523.354H325.404V531.816H316.969V523.354Z" fill="#91D6FF"/>
<path d="M359.144 523.354H367.579V531.816H359.144V523.354Z" fill="#91D6FF"/>
<path fill-rule="evenodd" clip-rule="evenodd" d="M366.712 437.466H313.618C309.878 437.466 306.847 440.497 306.847 444.236C306.847 447.974 309.878 451.005 313.618 451.005H366.712C370.451 451.005 373.483 447.974 373.483 444.236C373.483 440.497 370.451 437.466 366.712 437.466Z" fill="#BFE7FF"/>
<path fill-rule="evenodd" clip-rule="evenodd" d="M406.379 374.848H394.57C394.57 386.131 394.57 397.413 394.57 408.696C394.57 419.978 388.244 431.261 375.592 442.543H391.196C401.318 432.935 406.379 421.653 406.379 408.696C406.379 397.413 406.379 386.131 406.379 374.848Z" fill="#91D6FF"/>
<path fill-rule="evenodd" clip-rule="evenodd" d="M401.318 374.848H389.509C389.509 386.131 389.509 397.413 389.509 408.696C389.509 419.978 383.183 431.261 370.531 442.543H384.449C395.695 433.199 401.318 421.916 401.318 408.696C401.318 397.413 401.318 386.131 401.318 374.848Z" fill="#BFE7FF"/>
<path fill-rule="evenodd" clip-rule="evenodd" d="M428.125 350.309H367.313C363.018 350.309 359.536 353.789 359.536 358.083V392.343C359.536 396.636 363.018 400.117 367.313 400.117H428.125C432.42 400.117 435.902 396.636 435.902 392.343V358.083C435.902 353.789 432.42 350.309 428.125 350.309Z" fill="#BFE7FF"/>
<path fill-rule="evenodd" clip-rule="evenodd" d="M430.798 350.309C427.777 350.309 425.329 352.756 425.329 355.776V394.65C425.329 397.67 427.777 400.117 430.798 400.117C433.818 400.117 436.266 397.67 436.266 394.65V355.776C436.266 352.756 433.818 350.309 430.798 350.309Z" fill="#91D6FF"/>
<path fill-rule="evenodd" clip-rule="evenodd" d="M408.043 437.466H356.637C352.897 437.466 349.865 440.497 349.865 444.236C349.865 447.974 352.897 451.005 356.637 451.005H408.043C411.783 451.005 414.814 447.974 414.814 444.236C414.814 440.497 411.783 437.466 408.043 437.466Z" fill="#91D6FF"/>
<path fill-rule="evenodd" clip-rule="evenodd" d="M322.044 490.451C322.044 490.451 326.901 500.257 322.92 503.347C318.932 506.438 308.4 512.23 308.4 512.23L336.304 510.477L330.101 489.09L322.044 490.451Z" fill="url(#paint1_linear_736_1002)"/>
<path fill-rule="evenodd" clip-rule="evenodd" d="M333.539 499.325C332.661 499.744 334.105 503.684 331.016 503.407C327.927 503.131 325.988 499.058 323.71 499.322C321.431 499.586 319.985 503.688 315.648 506.544C311.312 509.402 304.882 512.809 305.313 515.681C305.744 518.554 315.862 519.323 320.988 518.372C326.114 517.422 328.507 515.362 331.832 515.526C335.158 515.69 337.248 515.284 338.291 513.149C339.333 511.014 334.553 498.841 333.539 499.325Z" fill="#EEDFE8"/>
<path fill-rule="evenodd" clip-rule="evenodd" d="M333.293 512.435L333.008 512.418C328.887 512.071 326.059 514.662 322.136 515.393C318.213 516.124 307.866 516.377 306.214 513.923C306.135 513.807 306.063 513.688 305.995 513.567C305.44 514.25 305.179 514.979 305.313 515.83C305.744 518.564 315.863 519.296 320.989 518.391C326.116 517.487 328.509 515.526 331.835 515.682L332.426 515.705C335.41 515.786 337.314 515.328 338.293 513.42C338.532 512.955 338.478 511.955 338.239 510.691C336.848 511.642 335.092 512.489 333.293 512.435Z" fill="#EC7AA5"/>
<path fill-rule="evenodd" clip-rule="evenodd" d="M364.079 404.02C355.631 404.397 308.613 414.793 300.07 416.559C291.528 418.326 284.306 427.883 290.82 438.95C298.136 451.373 317.013 486.655 321.597 494.608C323.865 498.545 335.31 496.337 332.621 489.73C327.61 477.413 325.283 446.472 312.506 435.19C312.506 435.19 355.474 442.666 374.034 434.102C387.523 427.878 384.471 403.108 364.079 404.02Z" fill="#413C75"/>
<path fill-rule="evenodd" clip-rule="evenodd" d="M305.148 351.303C305.148 351.303 305.244 346.282 302.839 342.691C300.435 339.1 300.339 335.285 298.52 335.41C296.7 335.535 298.502 344.402 298.502 344.402C298.502 344.402 296.193 343.52 294.534 342.404C292.876 341.289 287.846 335.79 286.671 336.765C284.678 338.425 287.888 347.79 289.636 349.663C291.39 351.536 300.046 356.769 300.046 356.769L325.538 382.443L329.35 368.814L305.148 351.303Z" fill="url(#paint2_linear_736_1002)"/>
<path fill-rule="evenodd" clip-rule="evenodd" d="M356.137 349.036C352.207 358.148 345.012 374.887 342.045 379.881C338.328 386.135 332.466 388.891 325.603 384.25C324.645 383.603 322.792 382.148 320.043 379.884C320.653 373.94 322.874 368.972 326.704 364.977C328.437 366.411 329.304 367.128 329.304 367.128C329.304 367.128 336.679 348.228 342.612 337.28C347.75 327.808 362.119 335.184 356.137 349.036Z" fill="#EA5455"/>
<path fill-rule="evenodd" clip-rule="evenodd" d="M329.228 367.138C327.907 371.615 327.092 373.725 326.784 373.465C326.475 373.206 326.593 370.512 327.138 365.382L329.228 367.138Z" fill="black" fill-opacity="0.159856"/>
<path fill-rule="evenodd" clip-rule="evenodd" d="M373.121 313.667V321.73L379.044 316.963C379.044 316.963 380.864 309.238 382.344 303.501C383.273 299.903 385.535 287.726 376.428 288.297C368.969 275.151 347.243 283.287 347.07 299.348C346.862 318.665 347.032 326.186 347.032 326.186C359.317 326.891 366.232 325.115 373.121 313.667Z" fill="#422851"/>
<path fill-rule="evenodd" clip-rule="evenodd" d="M379.172 329.019C379.172 329.019 373.662 327.726 373.471 318.701C373.28 309.676 373.414 306.595 373.414 306.595L361.278 306.376C361.278 306.376 361.146 316.434 361.144 320.072C361.139 328.918 354.632 329.643 354.632 329.643C354.632 329.643 355.744 336.941 366.741 337.56C375.326 338.043 379.172 329.019 379.172 329.019Z" fill="url(#paint3_linear_736_1002)"/>
<path fill-rule="evenodd" clip-rule="evenodd" d="M376.243 302.089C381.657 301.879 380.774 309.802 375.15 309.791C375.15 309.791 371.883 321.046 360.543 321.046C351.333 321.046 350.734 307.928 350.65 305.312C350.56 302.521 350.549 293.355 350.549 293.355L376.454 293.343L376.243 302.089Z" fill="url(#paint4_linear_736_1002)"/>
<path fill-rule="evenodd" clip-rule="evenodd" d="M376.662 302.037C374.418 302.406 374.691 303.891 374.08 303.762C370.983 303.103 358.443 303.972 356.829 297.078C354.82 301.385 354.329 302.444 349.905 303.6V290.98L377.885 288.297C377.885 288.297 377.45 301.906 376.662 302.037Z" fill="#422851"/>
<path d="M362.729 313.485C362.729 313.485 360.028 315.772 356.9 313.631" stroke="#F77B7B" stroke-width="1.5" stroke-linecap="round"/>
<path d="M360.946 316.133C360.106 316.521 359.297 316.549 358.574 316.163" stroke="#F49494" stroke-linecap="round"/>
<path d="M375.691 306.35C375.635 305.079 376.023 304.069 377.32 303.867" stroke="#F77B7B" stroke-linecap="round"/>
<path fill-rule="evenodd" clip-rule="evenodd" d="M377.941 328.095C371.027 332.329 363.033 333.881 355.593 329.284C343.45 353.22 340.424 381.779 343.344 413.344C361.051 420.352 375.933 418.974 388.603 410.964L377.941 328.095Z" fill="#FFE4F4"/>
<path fill-rule="evenodd" clip-rule="evenodd" d="M291.776 490.845C291.776 490.845 291.922 502.387 282.408 506.702C272.901 511.017 266.127 510.757 266.989 514.093C267.851 517.429 292.599 517.294 294.91 514.685C296.879 512.466 301.163 491.799 302.342 493.379L291.776 490.845Z" fill="url(#paint5_linear_736_1002)"/>
<path fill-rule="evenodd" clip-rule="evenodd" d="M298.686 507.145C297.228 506.096 296.002 512.144 292.042 510.462C288.081 508.781 291.204 503.222 288.712 502.196C286.22 501.171 281.407 506.683 275.015 508.023C268.623 509.362 263.434 510.535 261.959 513.022C260.688 515.159 261.959 515.843 261.959 515.843C261.959 515.843 268.112 518.914 271.936 519.591C277.49 520.573 293.544 521.227 295.303 519.436C296.383 518.338 299.415 507.67 298.686 507.145Z" fill="#EEDFE8"/>
<path fill-rule="evenodd" clip-rule="evenodd" d="M261.612 513.273C260.407 515.238 262.308 516.26 262.536 516.373L263.453 516.764C265.194 517.487 269.121 519.038 272.024 519.593C277.345 520.61 293.825 521.212 295.597 519.464C295.909 519.157 296.293 518.034 296.666 516.575L295.535 516.699C290.093 517.275 277.946 518.318 271.951 516.906C266.629 515.653 263.716 513.591 262.388 512.388C262.065 512.665 261.804 512.959 261.612 513.273Z" fill="#EC7AA5"/>
<path fill-rule="evenodd" clip-rule="evenodd" d="M390.549 400.452C398.736 417.738 397.077 429.349 385.571 435.285C368.879 443.896 318.911 433.712 318.911 433.712C318.911 433.712 319.803 440.898 318.911 447.308C316.578 464.049 305.488 491.939 303.141 495.444C299.896 500.29 290.011 496.635 289.825 492.6C289.639 488.564 297.277 437.026 298.438 427.198C299.594 417.37 303.242 415.942 313.897 413.256C316.345 412.638 345.292 405.447 347.944 405.656C363.134 406.857 377.336 405.122 390.549 400.452Z" fill="#524D87"/>
<path fill-rule="evenodd" clip-rule="evenodd" d="M377.085 432.609C360.56 434.46 316.811 430.645 315.053 432.378C313.376 434.034 313.656 462.833 309.893 479.501L310.465 477.927C314.004 468.101 317.679 456.149 318.911 447.308C319.803 440.898 318.911 433.712 318.911 433.712L320.925 434.102C330.424 435.885 370.882 442.862 385.571 435.285C393.529 431.179 396.777 424.359 395.314 414.823C392.794 425.601 386.718 431.53 377.085 432.609Z" fill="white" fill-opacity="0.056108"/>
<path fill-rule="evenodd" clip-rule="evenodd" d="M377.638 328.115C366.187 365.615 359.32 418.78 395.083 409.531C376.086 374.563 401.912 358.825 396.058 340.753C394.057 334.574 377.788 327.63 377.638 328.115Z" fill="#EA5455"/>
<path fill-rule="evenodd" clip-rule="evenodd" d="M390.554 343.687C377.612 345.639 388.28 368.23 384.008 371.633C379.736 375.036 372.3 375.403 371.499 377.482C369.887 381.661 377.677 392.21 394.868 409.128L395.083 409.531C378.535 379.071 395.998 363.202 396.906 347.672C394.989 344.665 392.871 343.337 390.554 343.687Z" fill="black" fill-opacity="0.159856"/>
<path fill-rule="evenodd" clip-rule="evenodd" d="M356.199 329.021C351.829 339.978 349.728 348.575 347.769 364.658C346.679 373.588 346.407 387.266 346.952 405.693L341.552 406.755C338.979 378.286 338.122 362.218 338.982 358.552C341.148 349.326 342.616 343.935 345.476 335.5C347.051 330.87 356.199 329.021 356.199 329.021Z" fill="#EA5455"/>
<path fill-rule="evenodd" clip-rule="evenodd" d="M375.234 370.687C375.234 370.687 368.183 363.629 365.741 362.81C363.299 361.991 349.924 361.007 350.015 362.858C350.117 364.841 358.724 364.727 359.52 365.702C360.316 366.677 361.422 374.27 364.431 375.018C367.433 375.767 373.657 377.983 373.657 377.983L401.362 392.293L398.41 377.984L375.234 370.687Z" fill="url(#paint6_linear_736_1002)"/>
<path fill-rule="evenodd" clip-rule="evenodd" d="M396.454 340.805C404.858 352.662 412.033 370.723 414.787 377.764C417.541 384.806 414.763 395.426 402.653 393.341C401.691 393.176 400.429 392.789 398.865 392.181C394.412 386.079 393.631 380.84 395.293 376.175C396.337 376.616 396.859 376.836 396.859 376.836C396.859 376.836 384.823 355.507 381.884 349.79C376.974 340.241 389.052 330.357 396.454 340.805Z" fill="#EA5455"/>
<path fill-rule="evenodd" clip-rule="evenodd" d="M396.859 376.836C400.935 378.826 402.717 379.384 402.204 378.508C401.692 377.633 399.134 375.693 394.531 372.69L396.859 376.836Z" fill="black" fill-opacity="0.159856"/>
<path fill-rule="evenodd" clip-rule="evenodd" d="M239.672 396.174H250.782V532.767H239.672V396.174Z" fill="#DBDBDB"/>
<path fill-rule="evenodd" clip-rule="evenodd" d="M237.821 396.174H245.227V532.767H237.821V396.174Z" fill="#EFEFEF"/>
<path fill-rule="evenodd" clip-rule="evenodd" d="M168.233 396.174H179.343V532.767H168.233V396.174Z" fill="#DBDBDB"/>
<path fill-rule="evenodd" clip-rule="evenodd" d="M166.381 396.174H173.788V532.767H166.381V396.174Z" fill="#EFEFEF"/>
<path fill-rule="evenodd" clip-rule="evenodd" d="M428.999 396.174H440.109V532.767H428.999V396.174Z" fill="#DBDBDB"/>
<path fill-rule="evenodd" clip-rule="evenodd" d="M427.148 396.174H434.554V532.767H427.148V396.174Z" fill="#EFEFEF"/>
<path fill-rule="evenodd" clip-rule="evenodd" d="M352.93 396.174H364.04V532.767H352.93V396.174Z" fill="#DBDBDB"/>
<path fill-rule="evenodd" clip-rule="evenodd" d="M351.079 396.174H358.485V532.767H351.079V396.174Z" fill="#EFEFEF"/>
<path fill-rule="evenodd" clip-rule="evenodd" d="M244.589 391.958H441.793C442.652 391.958 443.348 392.655 443.348 393.513V407.989C443.348 408.848 442.652 409.544 441.793 409.544H244.589C243.73 409.544 243.034 408.848 243.034 407.989V393.513C243.034 392.655 243.73 391.958 244.589 391.958Z" fill="#DBDBDB"/>
<path fill-rule="evenodd" clip-rule="evenodd" d="M160.068 391.958H356.427C357.286 391.958 357.982 392.655 357.982 393.513V407.989C357.982 408.848 357.286 409.544 356.427 409.544H160.068C159.209 409.544 158.513 408.848 158.513 407.989V393.513C158.513 392.655 159.209 391.958 160.068 391.958Z" fill="#DBDBDB"/>
<path d="M454.336 391.958H141.407V400.992H454.336V391.958Z" fill="#EFEFEF"/>
<path fill-rule="evenodd" clip-rule="evenodd" d="M212.098 362.775V358.899L216.99 358.898L216.99 356.843C216.99 355.707 217.902 354.787 219.028 354.787C220.154 354.787 221.066 355.707 221.066 356.843V361.131C221.066 362.039 220.336 362.775 219.436 362.775H212.098Z" fill="#02B596"/>
<path fill-rule="evenodd" clip-rule="evenodd" d="M198.53 365.007V361.307C198.53 360.171 199.442 359.251 200.568 359.251C201.694 359.251 202.606 360.171 202.606 361.307L202.606 363.362H205.051L205.052 353.906C205.052 351.408 207.059 349.383 209.536 349.383C212.012 349.383 214.02 351.408 214.02 353.906V377.342H205.052L205.051 367.473L200.976 367.474C199.625 367.474 198.53 366.37 198.53 365.007Z" fill="#02D3AF"/>
<path fill-rule="evenodd" clip-rule="evenodd" d="M198.918 370.92H219.623L218.142 390.838C218.102 391.383 217.652 391.804 217.11 391.804H201.431C200.89 391.804 200.44 391.383 200.399 390.838L198.918 370.92Z" fill="url(#paint7_linear_736_1002)"/>
<path fill-rule="evenodd" clip-rule="evenodd" d="M198.918 370.92H219.623C220.195 370.92 220.659 371.388 220.659 371.964V376.141C220.659 376.718 220.195 377.185 219.623 377.185H198.918C198.346 377.185 197.883 376.718 197.883 376.141V371.964C197.883 371.388 198.346 370.92 198.918 370.92Z" fill="#FFB3A4"/>
<path fill-rule="evenodd" clip-rule="evenodd" d="M267.487 389.663H364.936C365.706 389.663 366.331 390.287 366.331 391.058C366.331 391.829 365.706 392.453 364.936 392.453H267.487C266.716 392.453 266.091 391.829 266.091 391.058C266.091 390.287 266.716 389.663 267.487 389.663Z" fill="#8F84FF"/>
<path fill-rule="evenodd" clip-rule="evenodd" d="M333.519 389.663H364.936C365.706 389.663 366.331 390.287 366.331 391.058C366.331 391.829 365.706 392.453 364.936 392.453H333.519C332.748 392.453 332.123 391.829 332.123 391.058C332.123 390.287 332.748 389.663 333.519 389.663Z" fill="#7367F0"/>
<path fill-rule="evenodd" clip-rule="evenodd" d="M264.625 347.532H325.978C327.655 347.532 329.071 348.778 329.284 350.441L333.834 386.029C334.068 387.854 332.777 389.523 330.951 389.756C330.811 389.774 330.669 389.783 330.528 389.783H269.175C267.498 389.783 266.082 388.537 265.869 386.874L261.319 351.286C261.085 349.461 262.376 347.792 264.202 347.559C264.342 347.541 264.484 347.532 264.625 347.532Z" fill="#7367F0"/>
<path fill-rule="evenodd" clip-rule="evenodd" d="M264.625 347.532H323.817C325.494 347.532 326.91 348.778 327.123 350.441L331.673 386.029C331.907 387.854 330.616 389.523 328.79 389.756C328.65 389.774 328.508 389.783 328.367 389.783H269.175C267.498 389.783 266.082 388.537 265.869 386.874L261.319 351.286C261.085 349.461 262.376 347.792 264.202 347.559C264.342 347.541 264.484 347.532 264.625 347.532Z" fill="#B1A9FF"/>
<path d="M298.214 373.081C300.112 371.651 300.385 368.812 298.823 366.741C297.261 364.669 294.457 364.149 292.558 365.579C290.66 367.009 290.387 369.847 291.949 371.919C293.511 373.991 296.315 374.511 298.214 373.081Z" fill="white"/>
<path fill-rule="evenodd" clip-rule="evenodd" d="M379.344 381.777H421.469C424.281 381.777 426.561 384.056 426.561 386.868C426.561 389.679 424.281 391.958 421.469 391.958H379.344C378.833 391.958 378.418 391.544 378.418 391.033V382.703C378.418 382.192 378.833 381.777 379.344 381.777Z" fill="#F16B79"/>
<path d="M379.344 383.814H403.447C405.134 383.814 406.502 385.181 406.502 386.868C406.502 388.555 405.134 389.922 403.447 389.922H379.344C378.833 389.922 378.418 389.508 378.418 388.997V384.739C378.418 384.228 378.833 383.814 379.344 383.814Z" fill="#EAEFFF"/>
<path d="M474.524 349.383H595.987V532.964H474.524V349.383Z" fill="#91D6FF"/>
<path d="M474.524 349.383H563.211V532.964H474.524V349.383Z" fill="#BFE7FF"/>
<path fill-rule="evenodd" clip-rule="evenodd" d="M548.389 473.058H489.346C485.419 473.058 482.236 476.241 482.236 480.167V518.126C482.236 522.052 485.419 525.234 489.346 525.234H548.389C552.316 525.234 555.499 522.052 555.499 518.126V480.167C555.499 476.241 552.316 473.058 548.389 473.058Z" fill="#E3F4FF"/>
<path fill-rule="evenodd" clip-rule="evenodd" d="M530.435 473.058H507.299V479.166C507.299 481.129 508.891 482.721 510.855 482.721H526.88C528.844 482.721 530.435 481.129 530.435 479.166V473.058Z" fill="#91D6FF"/>
<path fill-rule="evenodd" clip-rule="evenodd" d="M553.648 367.178H489.346C485.419 367.178 482.236 370.36 482.236 374.286V402.18C482.236 406.106 485.419 409.288 489.346 409.288H553.648C554.67 409.288 555.499 408.46 555.499 407.437V369.029C555.499 368.006 554.67 367.178 553.648 367.178Z" fill="#91D6FF"/>
<path fill-rule="evenodd" clip-rule="evenodd" d="M532.322 357.113H473.279C469.352 357.113 466.169 360.295 466.169 364.221V402.18C466.169 406.106 469.352 409.288 473.279 409.288H532.322C536.249 409.288 539.433 406.106 539.433 402.18V364.221C539.433 360.295 536.249 357.113 532.322 357.113Z" fill="#E3F4FF"/>
<path fill-rule="evenodd" clip-rule="evenodd" d="M548.389 415.086H489.346C485.419 415.086 482.236 418.268 482.236 422.194V460.153C482.236 464.079 485.419 467.261 489.346 467.261H548.389C552.316 467.261 555.499 464.079 555.499 460.153V422.194C555.499 418.268 552.316 415.086 548.389 415.086Z" fill="#E3F4FF"/>
<path fill-rule="evenodd" clip-rule="evenodd" d="M530.435 415.086H507.299V421.194C507.299 423.157 508.891 424.748 510.855 424.748H526.88C528.844 424.748 530.435 423.157 530.435 421.194V415.086Z" fill="#91D6FF"/>
<path fill-rule="evenodd" clip-rule="evenodd" d="M514.369 357.113H491.233V363.221C491.233 365.184 492.824 366.775 494.788 366.775H510.814C512.777 366.775 514.369 365.184 514.369 363.221V357.113Z" fill="#91D6FF"/>
<path fill-rule="evenodd" clip-rule="evenodd" d="M539.847 329.648H546.365L553.399 348.785H546.881L539.847 329.648Z" fill="#7367F0"/>
<path fill-rule="evenodd" clip-rule="evenodd" d="M523.039 310.51H552.484C552.893 310.51 553.225 310.842 553.225 311.25C553.225 311.302 553.22 311.354 553.209 311.405L545.377 348.199C545.304 348.541 545.002 348.785 544.652 348.785H515.207C514.798 348.785 514.467 348.454 514.467 348.045C514.467 347.993 514.472 347.941 514.483 347.891L522.315 311.096C522.388 310.754 522.69 310.51 523.039 310.51Z" fill="#A7C3FF"/>
<path fill-rule="evenodd" clip-rule="evenodd" d="M521.41 310.51H550.855C551.264 310.51 551.596 310.842 551.596 311.25C551.596 311.302 551.59 311.354 551.579 311.405L543.747 348.199C543.674 348.541 543.372 348.785 543.023 348.785H513.578C513.169 348.785 512.837 348.454 512.837 348.045C512.837 347.993 512.843 347.941 512.853 347.891L520.685 311.096C520.758 310.754 521.06 310.51 521.41 310.51Z" fill="url(#paint8_linear_736_1002)"/>
<path d="M522.945 312.105H548.502C548.87 312.105 549.169 312.403 549.169 312.771C549.169 312.818 549.164 312.864 549.154 312.91L542.139 345.865C542.074 346.173 541.802 346.393 541.487 346.393H515.93C515.562 346.393 515.264 346.095 515.264 345.726C515.264 345.68 515.269 345.633 515.278 345.588L522.293 312.633C522.359 312.325 522.631 312.105 522.945 312.105Z" fill="#B3FFEB"/>
<path fill-rule="evenodd" clip-rule="evenodd" d="M78.0961 270.983C67.2423 268.471 66.5274 253.67 74.7794 248.536C66.2692 230.813 85.949 213.216 99.4294 224.068C108.267 220.31 115.611 234.975 107.388 246.365C110.836 265.922 103.818 270.977 91.1688 271.192L78.0961 270.983Z" fill="#422851"/>
<path fill-rule="evenodd" clip-rule="evenodd" d="M78.2312 267.448C78.2312 267.448 83.5111 266.216 83.6942 257.621C83.8774 249.026 83.7488 246.092 83.7488 246.092L95.3789 245.884C95.3789 245.884 95.5057 255.463 95.5075 258.927C95.5123 268.233 102.039 267.448 102.039 267.448C102.039 267.448 100.682 274.993 90.144 275.582C81.916 276.042 78.2312 267.448 78.2312 267.448Z" fill="url(#paint9_linear_736_1002)"/>
<path fill-rule="evenodd" clip-rule="evenodd" d="M81.0377 241.8C75.8496 241.601 76.6958 249.146 82.0853 249.136C82.0853 249.136 85.2156 259.855 96.0837 259.855C104.91 259.855 105.484 247.362 105.564 244.87C105.65 242.212 105.661 233.482 105.661 233.482L80.8358 233.471L81.0377 241.8Z" fill="url(#paint10_linear_736_1002)"/>
<path d="M93.9884 252.654C93.9884 252.654 96.577 254.832 99.575 252.793" stroke="#F77B7B" stroke-width="1.5" stroke-linecap="round"/>
<path d="M95.6971 255.176C96.5025 255.545 97.2779 255.572 97.9701 255.204" stroke="#F49494" stroke-linecap="round"/>
<path d="M81.5665 245.858C81.6199 244.648 81.2482 243.686 80.0057 243.493" stroke="#F77B7B" stroke-linecap="round"/>
<path fill-rule="evenodd" clip-rule="evenodd" d="M80.2169 240.868C80.2169 240.868 83.0606 244.659 83.6366 244.679C84.2126 244.699 84.4143 239.749 84.4143 239.749C87.9027 239.484 96.7309 237.737 98.895 233.668C100.408 237.258 103.301 238.853 105.202 238.547L105.563 246.174L106.45 230.84H79.5213L80.2169 240.868Z" fill="#422851"/>
<path fill-rule="evenodd" clip-rule="evenodd" d="M147.936 271.941C147.936 271.941 146.387 263.296 146.944 261.545C147.42 260.032 151.918 257.85 151.918 257.85C151.918 257.85 159.741 245.477 161.453 246.737C162.846 247.759 157.379 256.881 157.379 256.881C157.379 256.881 162.364 262.117 162.295 264.457C162.225 266.799 154.158 274.126 154.158 274.126L147.936 271.941Z" fill="url(#paint11_linear_736_1002)"/>
<path fill-rule="evenodd" clip-rule="evenodd" d="M152.086 257.726C152.086 257.726 155.551 257.254 156.102 258.334C156.572 259.254 153.693 261.862 153.693 262.596C153.693 263.329 153.735 268.88 153.966 268.93C154.198 268.981 157.437 259.872 156.746 257.946C156.177 256.364 152.086 257.726 152.086 257.726Z" fill="#F28585"/>
<path fill-rule="evenodd" clip-rule="evenodd" d="M106.735 270.919C101.535 268.757 95.2382 274.962 99.0745 280.884C105.203 290.354 127.828 315.22 138.257 315.256C147.625 315.289 156.23 278.041 156.032 275.072C155.835 272.103 148.232 268.388 145.47 270.485C142.701 272.582 133.943 297.153 133.943 297.153C133.943 297.153 112.017 273.116 106.735 270.919Z" fill="#7367F0"/>
<path fill-rule="evenodd" clip-rule="evenodd" d="M133.943 297.153C135.916 300.549 136.994 301.993 137.176 301.485C137.358 300.977 136.638 298.535 135.017 294.158L133.943 297.153Z" fill="black" fill-opacity="0.302803"/>
<path fill-rule="evenodd" clip-rule="evenodd" d="M100.066 508.308C100.066 508.308 99.0292 516.829 102.896 520.083C106.763 523.336 91.8456 522.162 91.8456 522.162L91.7368 508.173L100.066 508.308Z" fill="url(#paint12_linear_736_1002)"/>
<path fill-rule="evenodd" clip-rule="evenodd" d="M91.7033 515.86C93.0323 515.931 92.8203 519.925 94.6019 519.758C96.3835 519.591 99.3958 515.61 101.979 516.949C104.66 518.341 119.355 527.646 120.22 530.037C121.188 532.703 114.921 532.902 110.441 532.707C105.956 532.513 103.888 530.494 101.711 530.544C99.5285 530.595 99.0129 531.955 97.3803 532.329C95.7247 532.71 91.583 532.652 91.1992 531.461C90.7982 530.224 90.38 515.788 91.7033 515.86Z" fill="#222D4E"/>
<path fill-rule="evenodd" clip-rule="evenodd" d="M76.5997 334.574C76.5997 334.574 85.5156 420.391 86.2431 428.232C86.9706 436.073 85.5156 441.751 84.919 449.849C84.3223 457.948 87.1941 508.885 87.1941 508.885C91.416 511.434 96.4399 511.935 102.827 508.962C102.827 508.962 108.693 445.507 108.636 431.054C108.602 422.433 109.495 335.542 109.495 335.542L76.5997 334.574Z" fill="#2B256A"/>
<path fill-rule="evenodd" clip-rule="evenodd" d="M90.8461 428.936C91.5785 434.365 89.6112 444.648 84.9445 459.785L84.8857 457.296C84.819 454.005 84.817 451.439 84.9076 450.015L84.919 449.849C85.4957 442.021 86.8746 436.454 86.3087 429.009L86.1863 427.633C85.8806 424.46 84.9304 415.151 83.7399 403.577L84.3931 405.468C88.0089 416.025 90.1597 423.848 90.8461 428.936Z" fill="white" fill-opacity="0.0771689"/>
<path fill-rule="evenodd" clip-rule="evenodd" d="M103.536 517.897L102.937 518.811C102.656 519.238 102.776 519.812 103.203 520.092C103.216 520.1 103.228 520.108 103.24 520.115L112.097 525.345C112.368 525.505 112.703 525.516 112.985 525.374L114.167 524.778C110.723 522.273 107.272 520.033 103.536 517.897Z" fill="white" fill-opacity="0.540975"/>
<path fill-rule="evenodd" clip-rule="evenodd" d="M62.2118 509.692L62.9605 522.677L53.3623 522.931L55.1663 509.692H62.2118Z" fill="url(#paint13_linear_736_1002)"/>
<path fill-rule="evenodd" clip-rule="evenodd" d="M53.2722 518.173C60.0745 523.302 62.6847 516.885 63.2645 517.521C64.3679 518.731 66.4564 530.782 65.3193 532.471C64.3172 533.967 50.677 533.993 49.9227 532.584C48.9319 530.718 52.5157 517.603 53.2722 518.173Z" fill="#222D4E"/>
<path fill-rule="evenodd" clip-rule="evenodd" d="M57.2168 521.505H59.1373C59.5909 521.505 59.9777 521.834 60.051 522.281L60.6213 525.764C60.7039 526.269 60.3618 526.744 59.8572 526.827C59.8077 526.835 59.7577 526.839 59.7076 526.839H56.6465C56.1352 526.839 55.7207 526.425 55.7207 525.914C55.7207 525.864 55.7247 525.814 55.7328 525.764L56.3031 522.281C56.3764 521.834 56.7632 521.505 57.2168 521.505Z" fill="white" fill-opacity="0.540975"/>
<path fill-rule="evenodd" clip-rule="evenodd" d="M71.1289 331.798C71.1289 331.798 61.5698 340.41 59.0601 352.783C54.8766 373.408 56.982 411.502 56.8582 419.855C56.74 428.208 53.7353 433.248 52.1238 445.059C50.5123 456.869 52.1069 509.653 52.1069 509.653C56.3797 512.23 61.0127 512.415 66.1074 509.498L96.028 334.553L71.1289 331.798Z" fill="#38308B"/>
<path fill-rule="evenodd" clip-rule="evenodd" d="M64.7608 339.484L68.4951 339.998C65.2142 346.272 63.5567 360.579 63.5225 382.92L63.522 383.628C63.522 417.407 57.4223 429.307 54.9683 443.848L54.8951 444.29C53.4252 453.308 52.3242 467.759 51.592 487.642L51.5175 482.713C51.3138 467.691 51.3093 451.028 52.1238 445.059C53.7354 433.248 56.74 428.208 56.8582 419.855L56.8635 419.024C56.8614 409.232 55.0021 372.789 59.0601 352.783C60.12 347.557 62.4373 343.003 64.7608 339.484Z" fill="white" fill-opacity="0.0771689"/>
<path fill-rule="evenodd" clip-rule="evenodd" d="M60.8607 274.139C60.8607 274.139 70.015 304.806 70.2862 310.611C70.5573 316.416 62.7989 333.478 64.1198 337.791C67.1655 347.757 106.05 352.048 110.22 338.642C112.003 332.917 108.576 326.778 110.238 319.411C111.893 312.043 116.758 301.096 112.983 290.803C109.209 280.51 110.22 270.988 107.521 269.188C104.821 267.388 98.5105 265.477 98.5105 265.477C95.4418 269.995 85.0819 269.929 80.1384 265.158C80.1384 265.158 67.8577 267.541 60.8607 274.139Z" fill="#7367F0"/>
<path fill-rule="evenodd" clip-rule="evenodd" d="M69.0641 279.106C75.1662 288.794 75.1478 305.662 78.4251 307.871C81.7023 310.08 94.4576 307.912 94.4576 309.662C94.4576 311.411 76.8306 327.444 79.7243 335.109C81.2395 339.122 80.8285 342.713 78.4913 345.88L77.7284 345.714C70.7832 344.144 65.1995 341.324 64.1198 337.791C62.7989 333.478 70.5573 316.416 70.2862 310.611C70.0568 305.699 63.4675 282.987 61.4452 276.115C63.2324 272.882 65.772 273.879 69.0641 279.106Z" fill="black" fill-opacity="0.0564904"/>
<path fill-rule="evenodd" clip-rule="evenodd" d="M88.3736 329.057C88.3736 329.057 94.3302 326.417 96.2581 326.425C98.186 326.432 99.6606 326.495 99.6606 326.495L99.6663 329.164C99.6663 329.164 109.454 330.054 110.487 330.019C111.525 329.985 106.711 337.223 103.47 338.534C99.8892 339.982 87.7195 335.688 87.7195 335.688L88.3736 329.057Z" fill="url(#paint14_linear_736_1002)"/>
<path fill-rule="evenodd" clip-rule="evenodd" d="M61.3834 273.267C53.8784 278.741 34.7202 325.705 43.8202 332.292C51.5776 337.909 84.5351 338.641 86.9736 336.849C89.0047 335.353 90.1465 330.8 88.2359 328.313C85.6998 324.996 57.103 320.207 57.103 320.207C57.103 320.207 67.385 295.616 69.5309 291.306C76.8924 276.511 72.0154 265.515 61.3834 273.267Z" fill="#7367F0"/>
<path fill-rule="evenodd" clip-rule="evenodd" d="M57.1432 320.178C54.9612 323.595 54.0948 325.346 54.544 325.431C54.9932 325.516 56.682 323.92 59.6104 320.645L57.1432 320.178Z" fill="black" fill-opacity="0.302803"/>
<defs>
<filter id="filter0_f_736_1002" x="163.67" y="-2.05167" width="123.878" height="123.616" filterUnits="userSpaceOnUse" color-interpolation-filters="sRGB">
<feFlood flood-opacity="0" result="BackgroundImageFix"/>
<feBlend mode="normal" in="SourceGraphic" in2="BackgroundImageFix" result="shape"/>
<feGaussianBlur stdDeviation="3" result="effect1_foregroundBlur_736_1002"/>
</filter>
<filter id="filter1_d_736_1002" x="50.2673" y="269.446" width="195.233" height="103.949" filterUnits="userSpaceOnUse" color-interpolation-filters="sRGB">
<feFlood flood-opacity="0" result="BackgroundImageFix"/>
<feColorMatrix in="SourceAlpha" type="matrix" values="0 0 0 0 0 0 0 0 0 0 0 0 0 0 0 0 0 0 127 0" result="hardAlpha"/>
<feOffset dx="7" dy="8"/>
<feGaussianBlur stdDeviation="12.5"/>
<feColorMatrix type="matrix" values="0 0 0 0 0.101961 0 0 0 0 0.121569 0 0 0 0 0.223529 0 0 0 0.7 0"/>
<feBlend mode="normal" in2="BackgroundImageFix" result="effect1_dropShadow_736_1002"/>
<feBlend mode="normal" in="SourceGraphic" in2="effect1_dropShadow_736_1002" result="shape"/>
</filter>
<filter id="filter2_d_736_1002" x="48.2673" y="127.688" width="200.87" height="178.372" filterUnits="userSpaceOnUse" color-interpolation-filters="sRGB">
<feFlood flood-opacity="0" result="BackgroundImageFix"/>
<feColorMatrix in="SourceAlpha" type="matrix" values="0 0 0 0 0 0 0 0 0 0 0 0 0 0 0 0 0 0 127 0" result="hardAlpha"/>
<feOffset dx="8" dy="9"/>
<feGaussianBlur stdDeviation="14"/>
<feColorMatrix type="matrix" values="0 0 0 0 0.101961 0 0 0 0 0.121569 0 0 0 0 0.223529 0 0 0 0.7 0"/>
<feBlend mode="normal" in2="BackgroundImageFix" result="effect1_dropShadow_736_1002"/>
<feBlend mode="normal" in="SourceGraphic" in2="effect1_dropShadow_736_1002" result="shape"/>
</filter>
<linearGradient id="paint0_linear_736_1002" x1="11047.2" y1="-17231.2" x2="11047.2" y2="21877.8" gradientUnits="userSpaceOnUse">
<stop stop-color="#A2FFEA"/>
<stop offset="1" stop-color="#8CA5FF"/>
</linearGradient>
<linearGradient id="paint1_linear_736_1002" x1="-844.44" y1="401.12" x2="-992.332" y2="2304.96" gradientUnits="userSpaceOnUse">
<stop stop-color="#FDC6C6"/>
<stop offset="1" stop-color="#FAB2B2"/>
</linearGradient>
<linearGradient id="paint2_linear_736_1002" x1="-1554.09" y1="-990.337" x2="-1886.59" y2="4615.04" gradientUnits="userSpaceOnUse">
<stop stop-color="#FDC6C6"/>
<stop offset="1" stop-color="#FAB2B2"/>
</linearGradient>
<linearGradient id="paint3_linear_736_1002" x1="-731.214" y1="-573.081" x2="-1380.61" y2="4064.6" gradientUnits="userSpaceOnUse">
<stop stop-color="#FFAFAF"/>
<stop offset="1" stop-color="#F07777"/>
</linearGradient>
<linearGradient id="paint4_linear_736_1002" x1="-549.952" y1="123.096" x2="-1166.95" y2="2821.4" gradientUnits="userSpaceOnUse">
<stop stop-color="#FDC6C6"/>
<stop offset="1" stop-color="#FAB2B2"/>
</linearGradient>
<linearGradient id="paint5_linear_736_1002" x1="-1196.72" y1="712.046" x2="-1341.87" y2="2351.53" gradientUnits="userSpaceOnUse">
<stop stop-color="#FDC6C6"/>
<stop offset="1" stop-color="#FAB2B2"/>
</linearGradient>
<linearGradient id="paint6_linear_736_1002" x1="-1771.38" y1="1045.32" x2="-1913.5" y2="2355.18" gradientUnits="userSpaceOnUse">
<stop stop-color="#FDC6C6"/>
<stop offset="1" stop-color="#FAB2B2"/>
</linearGradient>
<linearGradient id="paint7_linear_736_1002" x1="2432.01" y1="1639.91" x2="485.367" y2="1639.91" gradientUnits="userSpaceOnUse">
<stop stop-color="#F16B79"/>
<stop offset="1" stop-color="#F69D88"/>
</linearGradient>
<linearGradient id="paint8_linear_736_1002" x1="3174.36" y1="-560.404" x2="3174.36" y2="4138.02" gradientUnits="userSpaceOnUse">
<stop stop-color="#9FF6EC"/>
<stop offset="1" stop-color="#7D9DFF"/>
</linearGradient>
<linearGradient id="paint9_linear_736_1002" x1="1151.24" y1="-591.695" x2="1781.4" y2="3826.01" gradientUnits="userSpaceOnUse">
<stop stop-color="#FFAFAF"/>
<stop offset="1" stop-color="#F07777"/>
</linearGradient>
<linearGradient id="paint10_linear_736_1002" x1="968.641" y1="89.6756" x2="1553.06" y2="2629.62" gradientUnits="userSpaceOnUse">
<stop stop-color="#FDC6C6"/>
<stop offset="1" stop-color="#FAB2B2"/>
</linearGradient>
<linearGradient id="paint11_linear_736_1002" x1="830.796" y1="-106.45" x2="1189.51" y2="2842.15" gradientUnits="userSpaceOnUse">
<stop stop-color="#FDC6C6"/>
<stop offset="1" stop-color="#FAB2B2"/>
</linearGradient>
<linearGradient id="paint12_linear_736_1002" x1="619.084" y1="108.054" x2="709.636" y2="1799.2" gradientUnits="userSpaceOnUse">
<stop stop-color="#FDC6C6"/>
<stop offset="1" stop-color="#FAB2B2"/>
</linearGradient>
<linearGradient id="paint13_linear_736_1002" x1="494.526" y1="136.519" x2="568.176" y2="1713.54" gradientUnits="userSpaceOnUse">
<stop stop-color="#FDC6C6"/>
<stop offset="1" stop-color="#FAB2B2"/>
</linearGradient>
<linearGradient id="paint14_linear_736_1002" x1="814.307" y1="717.968" x2="1023.84" y2="1243.16" gradientUnits="userSpaceOnUse">
<stop stop-color="#FDC6C6"/>
<stop offset="1" stop-color="#FAB2B2"/>
</linearGradient>
</defs>
</svg>
