<svg width="19" height="16" viewBox="0 0 19 16" fill="none" xmlns="http://www.w3.org/2000/svg">
<path fill-rule="evenodd" clip-rule="evenodd" d="M2.47192 3.49536C1.65644 3.49536 0.995361 2.83428 0.995361 2.0188C0.995361 1.20332 1.65644 0.542236 2.47192 0.542236C3.28741 0.542236 3.94849 1.20332 3.94849 2.0188C3.94849 2.83428 3.28741 3.49536 2.47192 3.49536ZM6.48208 2.69849H18.1493C18.618 2.69849 18.9954 2.32114 18.9977 1.85239C18.9977 1.38599 18.618 1.0063 18.1516 1.0063H6.48208C6.01567 1.0063 5.63599 1.38599 5.63599 1.85239C5.63599 2.3188 6.01567 2.69849 6.48208 2.69849ZM0.995361 8.00005C0.995361 8.81553 1.65644 9.47661 2.47192 9.47661C3.28741 9.47661 3.94849 8.81553 3.94849 8.00005C3.94849 7.18457 3.28741 6.52349 2.47192 6.52349C1.65644 6.52349 0.995361 7.18457 0.995361 8.00005ZM6.48208 8.68208H18.1493C18.618 8.68208 18.9954 8.30239 18.9977 7.83599C18.9977 7.36958 18.618 6.98989 18.1516 6.98989H6.48208C6.01567 6.98989 5.63599 7.36958 5.63599 7.83599C5.63599 8.30239 6.01567 8.68208 6.48208 8.68208ZM0.995361 13.9813C0.995361 14.7968 1.65644 15.4579 2.47192 15.4579C3.28741 15.4579 3.94849 14.7968 3.94849 13.9813C3.94849 13.1658 3.28741 12.5047 2.47192 12.5047C1.65644 12.5047 0.995361 13.1658 0.995361 13.9813ZM6.48208 14.6633H18.1493C18.618 14.6633 18.9954 14.286 18.9977 13.8172C18.9977 13.3508 18.618 12.9711 18.1516 12.9711H6.48208C6.01567 12.9711 5.63599 13.3508 5.63599 13.8172C5.63599 14.2836 6.01567 14.6633 6.48208 14.6633Z" fill="black"/>
</svg>
