<svg width="23" height="23" viewBox="0 0 23 23" fill="none" xmlns="http://www.w3.org/2000/svg">
<g clip-path="url(#clip0_734_428)">
<path d="M0 5.78771V8.30557H3.59567L0 5.78771ZM2.97978 19.8056H8.30556V16.0764L2.97978 19.8056ZM14.6944 16.077V19.8056H20.0196L14.6944 16.077ZM0 14.6945V17.2123L3.59694 14.6945H0ZM20.0209 3.19446H14.6944V6.92365L20.0209 3.19446ZM23 17.213V14.6945H19.4024L23 17.213ZM23 8.30557V5.78771L19.4037 8.30557H23ZM8.30556 3.19446H2.97978L8.30556 6.92365V3.19446Z" fill="#00247D"/>
<path d="M16.0616 14.6944L22.2665 19.0395C22.5696 18.7273 22.7873 18.3426 22.899 17.9221L18.2894 14.6944H16.0616ZM8.30553 14.6944H6.93767L0.73342 19.0389C1.06628 19.3775 1.49306 19.6196 1.97159 19.7321L8.30553 15.2969V14.6944ZM14.6944 8.30555H16.0623L22.2665 3.96111C21.928 3.61756 21.4988 3.37718 21.029 3.26791L14.6944 7.70308V8.30555ZM6.93767 8.30555L0.73342 3.96111C0.430556 4.27351 0.212607 4.65816 0.100281 5.07853L4.70986 8.30555H6.93767Z" fill="#CF1B2B"/>
<path d="M23 13.4167H13.4167V19.8056H14.6944V16.077L20.0196 19.8056H20.4444C20.7839 19.8056 21.1199 19.7379 21.4328 19.6063C21.7457 19.4748 22.0291 19.2821 22.2666 19.0395L16.0617 14.6945H18.2895L22.8991 17.9221C22.9585 17.7068 23 17.4838 23 17.25V17.213L19.4024 14.6945H23V13.4167ZM0 13.4167V14.6945H3.59694L0 17.2123V17.25C0 17.947 0.280472 18.5776 0.733444 19.0389L6.93769 14.6945H8.30556V15.2969L1.97161 19.7315C2.15944 19.7762 2.35367 19.8056 2.55556 19.8056H2.97978L8.30556 16.0764V19.8056H9.58333V13.4167H0ZM23 5.75001C23.0004 5.08045 22.7369 4.43771 22.2666 3.96112L16.0623 8.30557H14.6944V7.7031L21.029 3.26793C20.8377 3.22099 20.6415 3.19634 20.4444 3.19446H20.0209L14.6944 6.92365V3.19446H13.4167V9.58335H23V8.30557H19.4037L23 5.78771V5.75001ZM8.30556 3.19446V6.92365L2.97978 3.19446H2.55556C2.21606 3.19431 1.87997 3.26206 1.56705 3.39372C1.25413 3.52539 0.970705 3.7183 0.733444 3.96112L6.93769 8.30557H4.70989L0.100306 5.07854C0.0369151 5.29686 0.00317746 5.5227 0 5.75001L0 5.78771L3.59567 8.30557H0V9.58335H9.58333V3.19446H8.30556Z" fill="#EEEEEE"/>
<path d="M13.4167 9.58335V3.19446H9.58333V9.58335H0V13.4167H9.58333V19.8056H13.4167V13.4167H23V9.58335H13.4167Z" fill="#CF1B2B"/>
</g>
<defs>
<clipPath id="clip0_734_428">
<rect width="23" height="23" fill="white"/>
</clipPath>
</defs>
</svg>
