<svg width="135" height="50" viewBox="0 0 135 50" fill="none" xmlns="http://www.w3.org/2000/svg">
<path d="M11.9344 12.0361C11.9344 14.1276 11.4561 15.7982 10.4993 17.0481C9.54251 18.2896 8.25843 18.9103 6.64703 18.9103C5.15313 18.9103 3.95716 18.4229 3.05914 17.448V23.8598H0V5.13692H2.81995L2.94584 6.51176C3.84386 5.42855 5.065 4.88694 6.60926 4.88694C8.27102 4.88694 9.57189 5.50354 10.5119 6.73673C11.4602 7.96159 11.9344 9.66557 11.9344 11.8487V12.0361ZM8.88788 11.7737C8.88788 10.4238 8.61512 9.3531 8.06959 8.56153C7.53246 7.76995 6.76033 7.37416 5.7532 7.37416C4.50269 7.37416 3.60467 7.8866 3.05914 8.91149V14.9108C3.61306 15.9607 4.51948 16.4856 5.77838 16.4856C6.75194 16.4856 7.51148 16.0982 8.057 15.3233C8.61092 14.54 8.88788 13.3568 8.88788 11.7737Z" fill="#EC5D0C"/>
<path d="M22.5954 18.9103C20.6566 18.9103 19.083 18.3063 17.8745 17.0981C16.6743 15.8815 16.0742 14.265 16.0742 12.2486V11.8736C16.0742 10.5238 16.3344 9.31977 16.8547 8.26156C17.3835 7.19501 18.122 6.36594 19.0704 5.77434C20.0188 5.18274 21.0763 4.88694 22.2429 4.88694C24.0977 4.88694 25.5286 5.47438 26.5357 6.64924C27.5513 7.82411 28.059 9.48642 28.059 11.6362V12.861H19.1585C19.2509 13.9776 19.6243 14.8608 20.279 15.5107C20.942 16.1607 21.7729 16.4856 22.7716 16.4856C24.1732 16.4856 25.3146 15.9232 26.1958 14.7983L27.845 16.3606C27.2995 17.1689 26.5693 17.798 25.6545 18.2479C24.7481 18.6895 23.7284 18.9103 22.5954 18.9103ZM22.2303 7.32417C21.391 7.32417 20.7112 7.6158 20.1909 8.19907C19.6789 8.78233 19.3516 9.59474 19.2089 10.6363H25.0376V10.4113C24.9705 9.39476 24.6977 8.62819 24.2194 8.11158C23.741 7.58664 23.0779 7.32417 22.2303 7.32417Z" fill="#EC5D0C"/>
<path d="M35.3461 5.13692L35.4342 6.69924C36.4413 5.49104 37.7632 4.88694 39.3998 4.88694C42.2365 4.88694 43.68 6.49926 43.7304 9.72389V18.6604H40.6712V9.89887C40.6712 9.04064 40.4824 8.40738 40.1047 7.99909C39.7355 7.58247 39.127 7.37416 38.2793 7.37416C37.0456 7.37416 36.1266 7.92827 35.5223 9.03647V18.6604H32.4632V5.13692H35.3461Z" fill="#EC5D0C"/>
<path d="M48.3863 11.7987C48.3863 9.6989 48.8815 8.02409 49.8718 6.77423C50.8706 5.51604 52.1924 4.88694 53.8374 4.88694C55.3901 4.88694 56.6112 5.42438 57.5008 6.49926L57.6393 5.13692H60.3963V18.2479C60.3963 20.0227 59.8382 21.4226 58.722 22.4474C57.6141 23.4723 56.116 23.9848 54.2277 23.9848C53.2289 23.9848 52.2512 23.7765 51.2944 23.3598C50.346 22.9516 49.6243 22.4141 49.1291 21.7475L50.5768 19.9227C51.5168 21.0309 52.675 21.585 54.0514 21.585C55.0669 21.585 55.8684 21.3101 56.4559 20.7601C57.0434 20.2185 57.3372 19.4186 57.3372 18.3604V17.448C56.4559 18.4229 55.2809 18.9103 53.8122 18.9103C52.2176 18.9103 50.9125 18.2813 49.897 17.0231C48.8899 15.7649 48.3863 14.0234 48.3863 11.7987ZM51.4329 12.0611C51.4329 13.4193 51.7098 14.49 52.2638 15.2733C52.8261 16.0482 53.6024 16.4356 54.5927 16.4356C55.8265 16.4356 56.7413 15.9107 57.3372 14.8608V8.91149C56.7581 7.8866 55.8517 7.37416 54.6179 7.37416C53.6108 7.37416 52.8261 7.76995 52.2638 8.56153C51.7098 9.3531 51.4329 10.5196 51.4329 12.0611Z" fill="#EC5D0C"/>
<path d="M73.8646 17.3355C72.9666 18.3854 71.6909 18.9103 70.0375 18.9103C68.5604 18.9103 67.44 18.4812 66.6762 17.623C65.9209 16.7648 65.5432 15.5232 65.5432 13.8984V5.13692H68.6024V13.8609C68.6024 15.5774 69.3199 16.4356 70.7551 16.4356C72.2406 16.4356 73.2435 15.9065 73.7639 14.8483V5.13692H76.823V18.6604H73.9401L73.8646 17.3355Z" fill="#EC5D0C"/>
<path d="M85.2557 18.6604H82.1965V5.13692H85.2557V18.6604ZM82.0077 1.62482C82.0077 1.1582 82.1546 0.770746 82.4483 0.462447C82.7505 0.154149 83.1785 0 83.7324 0C84.2863 0 84.7144 0.154149 85.0165 0.462447C85.3186 0.770746 85.4697 1.1582 85.4697 1.62482C85.4697 2.0831 85.3186 2.46639 85.0165 2.77468C84.7144 3.07465 84.2863 3.22463 83.7324 3.22463C83.1785 3.22463 82.7505 3.07465 82.4483 2.77468C82.1546 2.46639 82.0077 2.0831 82.0077 1.62482Z" fill="#EC5D0C"/>
<path d="M93.4995 5.13692L93.5876 6.69924C94.5948 5.49104 95.9166 4.88694 97.5532 4.88694C100.39 4.88694 101.833 6.49926 101.884 9.72389V18.6604H98.8247V9.89887C98.8247 9.04064 98.6358 8.40738 98.2582 7.99909C97.8889 7.58247 97.2804 7.37416 96.4328 7.37416C95.199 7.37416 94.28 7.92827 93.6758 9.03647V18.6604H90.6166V5.13692H93.4995Z" fill="#EC5D0C"/>
<path d="M113.074 18.9103C111.135 18.9103 109.561 18.3063 108.353 17.0981C107.152 15.8815 106.552 14.265 106.552 12.2486V11.8736C106.552 10.5238 106.813 9.31977 107.333 8.26156C107.862 7.19501 108.6 6.36594 109.549 5.77434C110.497 5.18274 111.554 4.88694 112.721 4.88694C114.576 4.88694 116.007 5.47438 117.014 6.64924C118.029 7.82411 118.537 9.48642 118.537 11.6362V12.861H109.637C109.729 13.9776 110.102 14.8608 110.757 15.5107C111.42 16.1607 112.251 16.4856 113.25 16.4856C114.651 16.4856 115.793 15.9232 116.674 14.7983L118.323 16.3606C117.778 17.1689 117.047 17.798 116.133 18.2479C115.226 18.6895 114.207 18.9103 113.074 18.9103ZM112.708 7.32417C111.869 7.32417 111.189 7.6158 110.669 8.19907C110.157 8.78233 109.83 9.59474 109.687 10.6363H115.516V10.4113C115.449 9.39476 115.176 8.62819 114.697 8.11158C114.219 7.58664 113.556 7.32417 112.708 7.32417Z" fill="#EC5D0C"/>
<path d="M130.621 14.9858C130.621 14.4442 130.394 14.0317 129.941 13.7484C129.496 13.4651 128.753 13.2152 127.713 12.9985C126.672 12.7819 125.803 12.5069 125.107 12.1736C123.579 11.4404 122.815 10.378 122.815 8.98648C122.815 7.81994 123.311 6.84505 124.301 6.06181C125.291 5.27857 126.55 4.88694 128.078 4.88694C129.706 4.88694 131.019 5.2869 132.018 6.08681C133.025 6.88672 133.529 7.9241 133.529 9.19895H130.47C130.47 8.61569 130.251 8.13241 129.815 7.74912C129.379 7.3575 128.799 7.16169 128.078 7.16169C127.406 7.16169 126.857 7.31583 126.428 7.62413C126.009 7.93243 125.799 8.34488 125.799 8.86149C125.799 9.32811 125.996 9.69056 126.391 9.94887C126.785 10.2072 127.582 10.4696 128.783 10.7363C129.983 10.9946 130.923 11.307 131.603 11.6737C132.291 12.032 132.799 12.4652 133.126 12.9735C133.462 13.4818 133.629 14.0984 133.629 14.8233C133.629 16.0398 133.122 17.0272 132.106 17.7855C131.091 18.5354 129.76 18.9103 128.115 18.9103C126.999 18.9103 126.005 18.7104 125.132 18.3104C124.259 17.9105 123.579 17.3605 123.092 16.6606C122.606 15.9607 122.362 15.2066 122.362 14.3984H125.333C125.375 15.1149 125.648 15.6691 126.152 16.0607C126.655 16.444 127.322 16.6356 128.153 16.6356C128.959 16.6356 129.572 16.4856 129.991 16.1857C130.411 15.8774 130.621 15.4774 130.621 14.9858Z" fill="#EC5D0C"/>
<path d="M6.08439 42.0119L7.59136 41.3593V42.1052C7.59136 43.0748 7.24601 43.9015 6.55532 44.5852C5.86462 45.2689 5.02951 45.6108 4.04998 45.6108C3.07045 45.6108 2.2322 45.2689 1.53523 44.5852C0.838252 43.9015 0.489765 43.0748 0.489765 42.1052V35.8211L1.99673 35.1684V42.0772C2.00929 42.6552 2.21022 43.1338 2.59952 43.513C3.00138 43.9046 3.5037 44.1004 4.10649 44.1004C4.63393 44.1004 5.09544 43.8891 5.49102 43.4664C5.8866 43.0437 6.08439 42.5589 6.08439 42.0119ZM0.357905 33.6301C0.119302 33.3877 0 33.0955 0 32.7537C0 32.4118 0.119302 32.1228 0.357905 31.8866C0.596509 31.6442 0.885345 31.5229 1.22441 31.5229C1.56348 31.5229 1.85232 31.6442 2.09092 31.8866C2.32952 32.1228 2.44883 32.4118 2.44883 32.7537C2.44883 33.0955 2.32952 33.3877 2.09092 33.6301C1.85232 33.8663 1.56348 33.9844 1.22441 33.9844C0.885345 33.9844 0.596509 33.8663 0.357905 33.6301Z" fill="#EC5D0C"/>
<path d="M27.4973 42.8697C27.4973 43.0748 27.5789 43.2861 27.7422 43.5037C28.0436 43.9015 28.5239 44.1004 29.1832 44.1004C29.5851 44.1004 29.9398 44.0072 30.2475 43.8207L30.8126 45.2285C30.3229 45.4834 29.7797 45.6108 29.1832 45.6108C28.2414 45.6108 27.4063 45.2689 26.6779 44.5852C26.1881 44.088 25.9432 43.5161 25.9432 42.8697C25.9432 42.8448 25.9432 42.82 25.9432 42.7951C25.9432 41.6328 26.5429 40.8092 27.7422 40.3244L31.5755 38.7673C31.5755 38.1768 31.3777 37.6827 30.9822 37.2849C30.5866 36.8809 30.0874 36.6789 29.4846 36.6789C28.9572 36.6789 28.4925 36.8747 28.0907 37.2662C27.7014 37.6454 27.5004 38.124 27.4879 38.7021V38.8326L25.9809 39.4946V38.6741C25.9809 37.8039 26.3577 36.971 27.1111 36.1754C27.7516 35.5041 28.5616 35.1684 29.5411 35.1684C30.5207 35.1684 31.3558 35.5103 32.0465 36.194C32.7372 36.8778 33.0825 37.7044 33.0825 38.6741V44.9582L31.5755 45.6108V40.3989L28.4768 41.6483C27.8238 41.9529 27.4973 42.36 27.4973 42.8697Z" fill="#EC5D0C"/>
<path d="M57.0667 45.8066V44.9768C56.4702 45.3995 55.7858 45.6108 55.0134 45.6108C54.0339 45.6108 53.1988 45.2689 52.5081 44.5852C51.8174 43.9015 51.4721 43.0748 51.4721 42.1052V38.6741C51.4721 37.7044 51.8174 36.8778 52.5081 36.194C53.1988 35.5103 54.0339 35.1684 55.0134 35.1684C55.993 35.1684 56.8312 35.5103 57.5282 36.194C58.2252 36.8778 58.5737 37.7044 58.5737 38.6741V45.8346C58.5737 46.8042 58.2252 47.6309 57.5282 48.3146C56.8312 48.9983 55.993 49.3402 55.0134 49.3402C54.0339 49.3402 53.1988 48.9983 52.5081 48.3146C52.0686 47.8795 51.7703 47.3885 51.6133 46.8415L53.1109 46.5245C53.2114 46.7918 53.3778 47.0311 53.6101 47.2424C54.0433 47.634 54.53 47.8298 55.07 47.8298C55.5974 47.8298 56.062 47.634 56.4639 47.2424C56.8532 46.8633 57.0541 46.3847 57.0667 45.8066ZM52.979 42.0772C52.979 42.649 53.1894 43.1276 53.6101 43.513C54.037 43.9046 54.5237 44.1004 55.07 44.1004C55.5974 44.1004 56.062 43.9046 56.4639 43.513C56.8532 43.1338 57.0541 42.6552 57.0667 42.0772V38.7021C57.0541 38.124 56.8532 37.6454 56.4639 37.2662C56.062 36.8747 55.5597 36.6789 54.9569 36.6789C54.4295 36.6789 53.968 36.8747 53.5724 37.2662C53.1831 37.6516 52.9853 38.1116 52.979 38.6461V38.7021V42.0772Z" fill="#EC5D0C"/>
<path d="M80.5611 44.1004C81.0885 44.1004 81.5532 43.9046 81.955 43.513C82.3443 43.1338 82.5453 42.6552 82.5578 42.0772V41.9467L84.0648 41.2847V42.1052C84.0648 42.9753 83.6881 43.8082 82.9346 44.6039C82.2941 45.2752 81.4841 45.6108 80.5046 45.6108C79.5251 45.6108 78.6899 45.2689 77.9993 44.5852C77.3086 43.9015 76.9632 43.0748 76.9632 42.1052V38.6741C76.9632 37.7044 77.3086 36.8778 77.9993 36.194C78.6899 35.5103 79.5251 35.1684 80.5046 35.1684C81.4464 35.1684 82.2847 35.5103 83.0193 36.194C83.7163 36.8405 84.0648 37.6672 84.0648 38.6741V39.5505L78.4702 42.0119C78.4702 42.6024 78.668 43.0997 79.0635 43.5037C79.4591 43.9015 79.9583 44.1004 80.5611 44.1004ZM80.4481 36.6789C79.9206 36.6789 79.4591 36.8747 79.0635 37.2662C78.668 37.6578 78.4702 38.1271 78.4702 38.6741C78.4702 38.6865 78.4702 38.6958 78.4702 38.7021V40.3803L82.5484 38.5809C82.517 38.0587 82.3192 37.6205 81.955 37.2662C81.5532 36.8747 81.0509 36.6789 80.4481 36.6789Z" fill="#EC5D0C"/>
<path d="M101.626 45.6108V37.7044C101.626 37.0083 101.877 36.4116 102.379 35.9143C102.881 35.4171 103.487 35.1684 104.197 35.1684C104.931 35.1684 105.537 35.4109 106.015 35.8957C106.517 35.4109 107.12 35.1684 107.823 35.1684C108.576 35.1684 109.189 35.4109 109.66 35.8957C110.137 36.3867 110.379 36.9928 110.385 37.7138V44.9582L108.878 45.6108L108.887 37.7511C108.887 37.4403 108.784 37.1761 108.576 36.9586C108.369 36.741 108.124 36.6322 107.842 36.6322C107.547 36.6322 107.295 36.741 107.088 36.9586C106.875 37.1823 106.768 37.4434 106.768 37.7417V37.7511L106.759 44.9582L105.252 45.6108L105.261 37.7511C105.261 37.4403 105.157 37.1761 104.95 36.9586C104.743 36.741 104.498 36.6322 104.216 36.6322C103.927 36.6322 103.676 36.741 103.462 36.9586C103.249 37.1761 103.142 37.4403 103.142 37.7511L103.132 44.9582L101.626 45.6108Z" fill="#EC5D0C"/>
<path d="M131.562 44.1004C132.121 44.1004 132.583 43.9139 132.947 43.541C133.311 43.1556 133.493 42.7267 133.493 42.2543C133.493 41.8379 133.311 41.4432 132.947 41.0702C132.576 40.6973 132.074 40.4953 131.44 40.4642C130.661 40.4269 130.043 40.1938 129.584 39.7649C129.139 39.3485 128.872 38.7518 128.784 37.9748C128.777 37.9189 128.774 37.8629 128.774 37.807C128.806 37.1295 129.082 36.5266 129.603 35.9982C130.137 35.445 130.787 35.1684 131.553 35.1684C132.363 35.1684 133.013 35.445 133.502 35.9982C133.829 36.3712 134.083 36.8653 134.265 37.4807L132.9 38.0774C132.799 37.6672 132.645 37.3408 132.438 37.0984C132.206 36.8436 131.908 36.7162 131.543 36.7162C131.198 36.7162 130.897 36.8436 130.639 37.0984C130.401 37.3346 130.281 37.6019 130.281 37.9002C130.281 37.9127 130.281 37.9282 130.281 37.9469C130.281 38.2452 130.394 38.5032 130.62 38.7207C130.828 38.9258 131.129 39.0501 131.525 39.0937C132.617 39.218 133.455 39.5505 134.039 40.0913C134.68 40.7004 135 41.4432 135 42.3196V42.3476C134.987 43.1805 134.677 43.9263 134.068 44.5852C133.427 45.2689 132.592 45.6108 131.562 45.6108C130.576 45.6108 129.766 45.2752 129.132 44.6039C128.423 43.8642 128.046 43.0313 128.002 42.1052L127.993 42.0119L129.5 41.3593L129.509 42.0772C129.515 42.6552 129.713 43.1338 130.102 43.513C130.504 43.9046 130.991 44.1004 131.562 44.1004Z" fill="#EC5D0C"/>
</svg>
