<svg width="53" height="62" viewBox="0 0 53 62" fill="none" xmlns="http://www.w3.org/2000/svg">
<path fill-rule="evenodd" clip-rule="evenodd" d="M6 0H39.6665L52.3589 12.9957V55.7294C52.3589 59.0431 49.6726 61.7294 46.3589 61.7294H6C2.68629 61.7294 0 59.0431 0 55.7294V6C0 2.68629 2.68629 0 6 0Z" fill="#B7B1FB"/>
<path d="M34.0997 23.9904V41.0371C34.0997 42.8484 32.7144 44.2334 30.9028 44.2334H25.5748C24.9354 44.2334 24.5091 43.8072 24.5091 43.168C24.5091 42.5287 24.9354 42.1026 25.5748 42.1026H30.9028C31.5422 42.1026 31.9685 41.6764 31.9685 41.0371V23.9904C31.9685 23.3512 31.5422 22.925 30.9028 22.925H25.5748C24.9354 22.925 24.5091 22.4988 24.5091 21.8596C24.5091 21.2203 24.9354 20.7942 25.5748 20.7942H30.9028C32.7144 20.7942 34.0997 22.1792 34.0997 23.9904ZM27.5994 32.9399C27.706 32.7269 27.706 32.4072 27.5994 32.0876C27.4929 31.9811 27.4929 31.8745 27.3863 31.768L23.1238 27.5063C22.6976 27.0801 22.0582 27.0801 21.632 27.5063C21.2057 27.9325 21.2057 28.5717 21.632 28.9979L24.0829 31.4484H13.853C13.2136 31.4484 12.7874 31.8745 12.7874 32.5138C12.7874 33.153 13.2136 33.5792 13.853 33.5792H24.0829L21.632 36.0297C21.2057 36.4558 21.2057 37.0951 21.632 37.5213C21.8451 37.7343 22.1648 37.8409 22.3779 37.8409C22.591 37.8409 22.9107 37.7343 23.1238 37.5213L27.3863 33.2596C27.4929 33.153 27.5994 33.0465 27.5994 32.9399Z" fill="black"/>
<mask id="mask0_5_163" style="mask-type:luminance" maskUnits="userSpaceOnUse" x="12" y="20" width="23" height="25">
<path d="M34.0997 23.9904V41.0371C34.0997 42.8484 32.7144 44.2334 30.9028 44.2334H25.5748C24.9354 44.2334 24.5091 43.8072 24.5091 43.168C24.5091 42.5287 24.9354 42.1026 25.5748 42.1026H30.9028C31.5422 42.1026 31.9685 41.6764 31.9685 41.0371V23.9904C31.9685 23.3512 31.5422 22.925 30.9028 22.925H25.5748C24.9354 22.925 24.5091 22.4988 24.5091 21.8596C24.5091 21.2203 24.9354 20.7942 25.5748 20.7942H30.9028C32.7144 20.7942 34.0997 22.1792 34.0997 23.9904ZM27.5994 32.9399C27.706 32.7269 27.706 32.4072 27.5994 32.0876C27.4929 31.9811 27.4929 31.8745 27.3863 31.768L23.1238 27.5063C22.6976 27.0801 22.0582 27.0801 21.632 27.5063C21.2057 27.9325 21.2057 28.5717 21.632 28.9979L24.0829 31.4484H13.853C13.2136 31.4484 12.7874 31.8745 12.7874 32.5138C12.7874 33.153 13.2136 33.5792 13.853 33.5792H24.0829L21.632 36.0297C21.2057 36.4558 21.2057 37.0951 21.632 37.5213C21.8451 37.7343 22.1648 37.8409 22.3779 37.8409C22.591 37.8409 22.9107 37.7343 23.1238 37.5213L27.3863 33.2596C27.4929 33.153 27.5994 33.0465 27.5994 32.9399Z" fill="#283046"/>
</mask>
<g mask="url(#mask0_5_163)">
<path d="M36.2308 19.7287H10.656V45.2988H36.2308V19.7287Z" fill="#283046"/>
</g>
<path opacity="0.33996" d="M52.3589 12.9957H42.6665C41.0096 12.9957 39.6665 11.6525 39.6665 9.99567V0L52.3589 12.9957Z" fill="#7367F0"/>
</svg>
