<svg width="57" height="65" viewBox="0 0 57 65" fill="none" xmlns="http://www.w3.org/2000/svg">
<path fill-rule="evenodd" clip-rule="evenodd" d="M0 7.69614C18.4798 -2.87594 37.2123 -2.25005 56.155 7.69614L54.9549 20.9649C53.3284 38.9482 43.3838 55.1355 28.0775 64.7146C12.1079 55.2017 1.87481 38.4081 0.742198 19.8544L0 7.69614Z" fill="#28C76F"/>
<path d="M28.0774 44.3477C36.5357 44.3477 43.3924 37.5402 43.3924 29.1428C43.3924 20.7453 36.5357 13.9379 28.0774 13.9379C19.6192 13.9379 12.7625 20.7453 12.7625 29.1428C12.7625 37.5402 19.6192 44.3477 28.0774 44.3477Z" fill="#1CA258"/>
<path fill-rule="evenodd" clip-rule="evenodd" d="M27.859 18.341C32.7299 18.341 36.9461 21.6007 38.1696 26.197C38.2641 26.5522 38.0507 26.9162 37.693 27.0101C37.3352 27.104 36.9685 26.8921 36.874 26.5369C35.8052 22.5216 32.1186 19.6714 27.859 19.6714C22.7105 19.6714 18.5376 23.7999 18.5376 28.8912C18.5376 31.7651 19.4866 34.3487 21.3968 36.6659C21.6312 36.9502 21.589 37.3694 21.3026 37.602C21.0163 37.8347 20.5941 37.7929 20.3598 37.5086C18.2556 34.956 17.1975 32.0756 17.1975 28.8912C17.1975 23.0641 21.9714 18.341 27.859 18.341Z" fill="white"/>
<path fill-rule="evenodd" clip-rule="evenodd" d="M25.4896 22.0826C29.2814 20.7863 33.3755 22.6623 34.7742 26.3315L34.8505 26.5411C35.5694 28.6139 36.5472 29.552 37.7984 29.5363C38.1684 29.5317 38.4721 29.8257 38.4768 30.1931C38.4815 30.5605 38.1853 30.862 37.8153 30.8667C35.9505 30.89 34.5658 29.622 33.6739 27.2261L33.5834 26.9743C32.506 23.8677 29.095 22.2572 25.9259 23.3405C23.073 24.3158 21.5474 27.7632 22.2181 30.8025C22.3487 31.3943 22.5138 31.9254 22.7262 32.4373L22.9178 32.8795C23.5537 34.2755 24.381 35.3224 28.1162 39.7794C28.3529 40.0618 28.3141 40.4813 28.0297 40.7162C27.7452 40.9512 27.3227 40.9128 27.0861 40.6303L25.0827 38.2272C22.6786 35.3153 22.1353 34.485 21.5296 33.0455L21.4872 32.9441C21.2443 32.3587 21.0561 31.7533 20.9091 31.0872C20.1033 27.4359 21.9345 23.2979 25.4896 22.0826Z" fill="white"/>
<path fill-rule="evenodd" clip-rule="evenodd" d="M27.0378 25.6739C29.002 25.0024 31.1744 26.0509 31.7853 28.012C32.6654 30.8373 34.2861 32.5924 36.6781 33.3461C37.0308 33.4573 37.2259 33.8313 37.114 34.1814C37.002 34.5316 36.6253 34.7254 36.2726 34.6142C33.4421 33.7222 31.5094 31.6295 30.505 28.4051C30.1209 27.1718 28.7324 26.5017 27.4741 26.9318C26.1342 27.3899 25.471 28.673 25.8364 30.4294C26.0221 31.3221 26.7566 32.538 28.0074 34.1225L28.2207 34.39C28.3967 34.6088 28.581 34.8332 28.7807 35.0725L30.9341 37.6014C31.1699 37.8846 31.1298 38.3039 30.8446 38.538C30.5595 38.7721 30.1371 38.7324 29.9013 38.4492L28.1783 36.4311L27.7477 35.92C27.5436 35.6754 27.3547 35.4454 27.1737 35.2204L26.7396 34.6709C25.4934 33.0608 24.7514 31.7914 24.524 30.6985C24.0271 28.3098 25.0358 26.3583 27.0378 25.6739Z" fill="white"/>
<path fill-rule="evenodd" clip-rule="evenodd" d="M28.2301 29.2973C28.5839 29.1897 28.9586 29.3872 29.067 29.7385C29.7892 32.0795 31.2036 33.7401 33.8637 35.7231C34.1596 35.9437 34.2194 36.3607 33.9972 36.6545C33.775 36.9483 33.355 37.0076 33.059 36.787C30.1931 34.6505 28.606 32.7872 27.7857 30.1282C27.6773 29.7769 27.8763 29.4049 28.2301 29.2973Z" fill="white"/>
</svg>
