<svg width="75" height="62" viewBox="0 0 75 62" fill="none" xmlns="http://www.w3.org/2000/svg">
<path fill-rule="evenodd" clip-rule="evenodd" d="M6 0H68.1752C71.4889 0 74.1752 2.68629 74.1752 6V55.7294C74.1752 59.0431 71.4889 61.7294 68.1752 61.7294H6C2.68629 61.7294 0 59.0431 0 55.7294V6C0 2.68629 2.68629 0 6 0Z" fill="#6FD9E6"/>
<path d="M44.9336 28.4112H43.6903V24.6822C43.6903 20.5804 40.3336 17.2243 36.231 17.2243C32.1284 17.2243 28.7717 20.5804 28.7717 24.6822V28.4112H27.5285C25.415 28.4112 23.7988 30.0271 23.7988 32.1402V40.8411C23.7988 42.9542 25.415 44.5701 27.5285 44.5701H44.9336C47.047 44.5701 48.6632 42.9542 48.6632 40.8411V32.1402C48.6632 30.0271 47.047 28.4112 44.9336 28.4112ZM31.2581 24.6822C31.2581 21.9477 33.4959 19.7103 36.231 19.7103C38.9661 19.7103 41.2039 21.9477 41.2039 24.6822V28.4112H31.2581V24.6822ZM46.1768 40.8411C46.1768 41.5869 45.6795 42.0841 44.9336 42.0841H27.5285C26.7826 42.0841 26.2853 41.5869 26.2853 40.8411V32.1402C26.2853 31.3944 26.7826 30.8972 27.5285 30.8972H44.9336C45.6795 30.8972 46.1768 31.3944 46.1768 32.1402V40.8411Z" fill="black"/>
<mask id="mask0_5_174" style="mask-type:luminance" maskUnits="userSpaceOnUse" x="23" y="17" width="26" height="28">
<path d="M44.9336 28.4112H43.6903V24.6822C43.6903 20.5804 40.3336 17.2243 36.231 17.2243C32.1284 17.2243 28.7717 20.5804 28.7717 24.6822V28.4112H27.5285C25.415 28.4112 23.7988 30.0271 23.7988 32.1402V40.8411C23.7988 42.9542 25.415 44.5701 27.5285 44.5701H44.9336C47.047 44.5701 48.6632 42.9542 48.6632 40.8411V32.1402C48.6632 30.0271 47.047 28.4112 44.9336 28.4112ZM31.2581 24.6822C31.2581 21.9477 33.4959 19.7103 36.231 19.7103C38.9661 19.7103 41.2039 21.9477 41.2039 24.6822V28.4112H31.2581V24.6822ZM46.1768 40.8411C46.1768 41.5869 45.6795 42.0841 44.9336 42.0841H27.5285C26.7826 42.0841 26.2853 41.5869 26.2853 40.8411V32.1402C26.2853 31.3944 26.7826 30.8972 27.5285 30.8972H44.9336C45.6795 30.8972 46.1768 31.3944 46.1768 32.1402V40.8411Z" fill="#283046"/>
</mask>
<g mask="url(#mask0_5_174)">
<path d="M51.1498 15.9813H21.3125V45.8131H51.1498V15.9813Z" fill="#283046"/>
</g>
</svg>
