<svg width="648" height="574" viewBox="0 0 648 574" fill="none" xmlns="http://www.w3.org/2000/svg">
<path opacity="0.0528274" d="M473.402 0C569.83 0 648 77.8709 648 173.93C648 269.988 569.83 347.859 473.402 347.859C376.974 347.859 298.804 269.988 298.804 173.93C298.804 77.8709 376.974 0 473.402 0ZM473.402 65.0204C413.022 65.0204 364.074 113.781 364.074 173.93C364.074 234.078 413.022 282.839 473.402 282.839C533.782 282.839 582.73 234.078 582.73 173.93C582.73 113.781 533.782 65.0204 473.402 65.0204Z" fill="#7367F0"/>
<g opacity="0.14102" filter="url(#filter0_f_745_4401)">
<path d="M53.4966 226.488C80.8328 226.488 102.993 248.563 102.993 275.795C102.993 303.027 80.8328 325.102 53.4966 325.102C26.1604 325.102 4 303.027 4 275.795C4 248.563 26.1604 226.488 53.4966 226.488ZM53.4966 258.998C44.1843 258.998 36.6351 266.518 36.6351 275.795C36.6351 285.072 44.1843 292.592 53.4966 292.592C62.809 292.592 70.3581 285.072 70.3581 275.795C70.3581 266.518 62.809 258.998 53.4966 258.998Z" fill="#8BF78F"/>
</g>
<path d="M206.338 531C260.41 531 304.243 487.334 304.243 433.469C304.243 379.605 260.41 335.939 206.338 335.939C152.266 335.939 108.432 379.605 108.432 433.469C108.432 487.334 152.266 531 206.338 531Z" fill="#7367F0" fill-opacity="0.0612161"/>
<path opacity="0.14102" d="M173.703 126.79C192.928 126.79 208.514 111.264 208.514 92.1121C208.514 72.9602 192.928 57.4346 173.703 57.4346C154.477 57.4346 138.892 72.9602 138.892 92.1121C138.892 111.264 154.477 126.79 173.703 126.79Z" fill="#CEF5FF"/>
<g filter="url(#filter1_f_745_4401)">
<path d="M583.818 468.147C603.043 468.147 618.628 452.621 618.628 433.469C618.628 414.317 603.043 398.792 583.818 398.792C564.592 398.792 549.007 414.317 549.007 433.469C549.007 452.621 564.592 468.147 583.818 468.147Z" fill="#7367F0" fill-opacity="0.135927"/>
</g>
<path fill-rule="evenodd" clip-rule="evenodd" d="M231.676 119H401.482C415.365 119 426.619 130.254 426.619 144.137V547.336C426.619 561.218 415.365 572.473 401.482 572.473H231.676C217.794 572.473 206.539 561.218 206.539 547.336V144.137C206.539 130.254 217.794 119 231.676 119Z" fill="#ECDEFD"/>
<path d="M232.999 128.138H262.434C264.056 128.138 265.385 129.429 265.432 131.051L265.521 134.095C265.618 137.412 268.335 140.051 271.653 140.051H360.784C364.102 140.051 366.819 137.412 366.916 134.095L367.004 131.051C367.052 129.429 368.38 128.138 370.003 128.138H399.438C409.667 128.138 417.96 136.431 417.96 146.66V542.105C417.96 552.335 409.667 560.627 399.438 560.627H232.999C222.769 560.627 214.477 552.335 214.477 542.105V146.66C214.477 136.431 222.769 128.138 232.999 128.138Z" fill="#161D31"/>
<mask id="mask0_745_4401" style="mask-type:luminance" maskUnits="userSpaceOnUse" x="214" y="128" width="204" height="433">
<g opacity="0.0987723">
<path d="M232.999 128.138H262.434C264.056 128.138 265.385 129.429 265.432 131.051L265.521 134.095C265.618 137.412 268.335 140.051 271.653 140.051H360.784C364.102 140.051 366.819 137.412 366.916 134.095L367.004 131.051C367.052 129.429 368.38 128.138 370.003 128.138H399.438C409.667 128.138 417.96 136.431 417.96 146.66V542.105C417.96 552.335 409.667 560.627 399.438 560.627H232.999C222.769 560.627 214.477 552.335 214.477 542.105V146.66C214.477 136.431 222.769 128.138 232.999 128.138Z" fill="#7367F0"/>
</g>
</mask>
<g mask="url(#mask0_745_4401)">
<path opacity="0.0987723" d="M291.623 408.695C301.262 408.695 309.076 400.937 309.076 391.368C309.076 381.798 301.262 374.04 291.623 374.04C281.984 374.04 274.17 381.798 274.17 391.368C274.17 400.937 281.984 408.695 291.623 408.695Z" fill="#7367F0"/>
</g>
<mask id="mask1_745_4401" style="mask-type:luminance" maskUnits="userSpaceOnUse" x="214" y="128" width="204" height="433">
<g opacity="0.14102">
<path d="M232.999 128.138H262.434C264.056 128.138 265.385 129.429 265.432 131.051L265.521 134.095C265.618 137.412 268.335 140.051 271.653 140.051H360.784C364.102 140.051 366.819 137.412 366.916 134.095L367.004 131.051C367.052 129.429 368.38 128.138 370.003 128.138H399.438C409.667 128.138 417.96 136.431 417.96 146.66V542.105C417.96 552.335 409.667 560.627 399.438 560.627H232.999C222.769 560.627 214.477 552.335 214.477 542.105V146.66C214.477 136.431 222.769 128.138 232.999 128.138Z" fill="#C8F5D0"/>
</g>
</mask>
<g mask="url(#mask1_745_4401)">
<path opacity="0.14102" fill-rule="evenodd" clip-rule="evenodd" d="M396.068 374.04C442.606 374.04 480.333 411.496 480.333 457.7C480.333 503.904 442.606 541.359 396.068 541.359C349.53 541.359 311.803 503.904 311.803 457.7C311.803 411.496 349.53 374.04 396.068 374.04ZM396.068 410.59C369.862 410.59 348.618 431.682 348.618 457.7C348.618 483.717 369.862 504.809 396.068 504.809C422.274 504.809 443.518 483.717 443.518 457.7C443.518 431.682 422.274 410.59 396.068 410.59Z" fill="#ECDEFD"/>
</g>
<mask id="mask2_745_4401" style="mask-type:luminance" maskUnits="userSpaceOnUse" x="214" y="128" width="204" height="433">
<path d="M232.999 128.138H262.434C264.056 128.138 265.385 129.429 265.432 131.051L265.521 134.095C265.618 137.412 268.335 140.051 271.653 140.051H360.784C364.102 140.051 366.819 137.412 366.916 134.095L367.004 131.051C367.052 129.429 368.38 128.138 370.003 128.138H399.438C409.667 128.138 417.96 136.431 417.96 146.66V542.105C417.96 552.335 409.667 560.627 399.438 560.627H232.999C222.769 560.627 214.477 552.335 214.477 542.105V146.66C214.477 136.431 222.769 128.138 232.999 128.138Z" fill="#68DE9E" fill-opacity="0.642073"/>
</mask>
<g mask="url(#mask2_745_4401)">
<path fill-rule="evenodd" clip-rule="evenodd" d="M244.949 202.389H389.019C392.159 202.389 394.704 204.934 394.704 208.075C394.704 211.215 392.159 213.76 389.019 213.76H244.949C241.809 213.76 239.264 211.215 239.264 208.075C239.264 204.934 241.809 202.389 244.949 202.389Z" fill="#ECDEFD"/>
</g>
<path d="M328.508 126.939C330.391 126.939 331.917 128.394 331.917 130.188C331.917 131.942 330.458 133.372 328.633 133.435L328.508 133.437H289.963C288.081 133.437 286.555 131.982 286.555 130.188C286.555 128.433 288.014 127.004 289.838 126.941L289.963 126.939H328.508Z" fill="#A29AF7"/>
<path d="M342.322 126.397C344.205 126.397 345.731 127.913 345.731 129.782C345.731 131.609 344.272 133.099 342.447 133.164L342.322 133.166H342.143C340.261 133.166 338.735 131.651 338.735 129.782C338.735 127.954 340.194 126.465 342.018 126.4L342.143 126.397H342.322Z" fill="#A29AF7"/>
<path fill-rule="evenodd" clip-rule="evenodd" d="M224.72 272.463H232.314C234.523 272.463 236.314 274.254 236.314 276.463V279.966C236.314 280.639 236.86 281.185 237.533 281.185H287.543C289.752 281.185 291.543 282.976 291.543 285.185V327.883C291.543 330.092 289.752 331.883 287.543 331.883H224.72C222.511 331.883 220.72 330.092 220.72 327.883V276.463C220.72 274.254 222.511 272.463 224.72 272.463Z" fill="url(#paint0_linear_745_4401)"/>
<path fill-rule="evenodd" clip-rule="evenodd" d="M238.739 276.59H293.061C293.735 276.59 294.281 277.136 294.281 277.809C294.281 277.874 294.275 277.939 294.265 278.003L286.105 328.794C286.01 329.385 285.5 329.82 284.901 329.82H230.579C229.906 329.82 229.36 329.274 229.36 328.601C229.36 328.536 229.365 328.471 229.375 328.408L237.536 277.616C237.631 277.025 238.141 276.59 238.739 276.59Z" fill="url(#paint1_linear_745_4401)"/>
<path fill-rule="evenodd" clip-rule="evenodd" d="M300.012 294.877L293.899 326.091C293.164 329.845 289.874 332.554 286.048 332.554H225.579C223.37 332.554 221.579 330.763 221.579 328.554C221.579 328.295 221.604 328.038 221.654 327.785L227.767 296.57C228.502 292.816 231.792 290.108 235.618 290.108H296.087C298.296 290.108 300.087 291.899 300.087 294.108C300.087 294.366 300.062 294.623 300.012 294.877Z" fill="#FFCC7B"/>
<path fill-rule="evenodd" clip-rule="evenodd" d="M146 216.468H179.667L192.359 229.463V272.197C192.359 275.511 189.673 278.197 186.359 278.197H146C142.686 278.197 140 275.511 140 272.197V222.468C140 219.154 142.686 216.468 146 216.468Z" fill="#B7B1FB"/>
<path d="M174.1 240.458V257.505C174.1 259.316 172.714 260.701 170.903 260.701H165.575C164.935 260.701 164.509 260.275 164.509 259.636C164.509 258.996 164.935 258.57 165.575 258.57H170.903C171.542 258.57 171.969 258.144 171.969 257.505V240.458C171.969 239.819 171.542 239.393 170.903 239.393H165.575C164.935 239.393 164.509 238.966 164.509 238.327C164.509 237.688 164.935 237.262 165.575 237.262H170.903C172.714 237.262 174.1 238.647 174.1 240.458ZM167.599 249.408C167.706 249.194 167.706 248.875 167.599 248.555C167.493 248.449 167.493 248.342 167.386 248.236L163.124 243.974C162.698 243.548 162.058 243.548 161.632 243.974C161.206 244.4 161.206 245.039 161.632 245.465L164.083 247.916H153.853C153.214 247.916 152.787 248.342 152.787 248.981C152.787 249.621 153.214 250.047 153.853 250.047H164.083L161.632 252.497C161.206 252.923 161.206 253.563 161.632 253.989C161.845 254.202 162.165 254.308 162.378 254.308C162.591 254.308 162.911 254.202 163.124 253.989L167.386 249.727C167.493 249.621 167.599 249.514 167.599 249.408Z" fill="black"/>
<mask id="mask3_745_4401" style="mask-type:luminance" maskUnits="userSpaceOnUse" x="152" y="237" width="23" height="24">
<path d="M174.1 240.458V257.505C174.1 259.316 172.714 260.701 170.903 260.701H165.575C164.935 260.701 164.509 260.275 164.509 259.636C164.509 258.996 164.935 258.57 165.575 258.57H170.903C171.542 258.57 171.969 258.144 171.969 257.505V240.458C171.969 239.819 171.542 239.393 170.903 239.393H165.575C164.935 239.393 164.509 238.966 164.509 238.327C164.509 237.688 164.935 237.262 165.575 237.262H170.903C172.714 237.262 174.1 238.647 174.1 240.458ZM167.599 249.408C167.706 249.194 167.706 248.875 167.599 248.555C167.493 248.449 167.493 248.342 167.386 248.236L163.124 243.974C162.698 243.548 162.058 243.548 161.632 243.974C161.206 244.4 161.206 245.039 161.632 245.465L164.083 247.916H153.853C153.214 247.916 152.787 248.342 152.787 248.981C152.787 249.621 153.214 250.047 153.853 250.047H164.083L161.632 252.497C161.206 252.923 161.206 253.563 161.632 253.989C161.845 254.202 162.165 254.308 162.378 254.308C162.591 254.308 162.911 254.202 163.124 253.989L167.386 249.727C167.493 249.621 167.599 249.514 167.599 249.408Z" fill="#283046"/>
</mask>
<g mask="url(#mask3_745_4401)">
<path d="M176.231 236.196H150.656V261.766H176.231V236.196Z" fill="#283046"/>
</g>
<path opacity="0.33996" d="M192.359 229.463H182.667C181.01 229.463 179.667 228.12 179.667 226.463V216.468L192.359 229.463Z" fill="#7367F0"/>
<path fill-rule="evenodd" clip-rule="evenodd" d="M168.907 376.748H231.082C234.396 376.748 237.082 379.434 237.082 382.748V432.477C237.082 435.791 234.396 438.477 231.082 438.477H168.907C165.593 438.477 162.907 435.791 162.907 432.477V382.748C162.907 379.434 165.593 376.748 168.907 376.748Z" fill="#6FD9E6"/>
<path d="M207.841 405.159H206.597V401.43C206.597 397.328 203.241 393.972 199.138 393.972C195.035 393.972 191.679 397.328 191.679 401.43V405.159H190.435C188.322 405.159 186.706 406.775 186.706 408.888V417.589C186.706 419.702 188.322 421.318 190.435 421.318H207.841C209.954 421.318 211.57 419.702 211.57 417.589V408.888C211.57 406.775 209.954 405.159 207.841 405.159ZM194.165 401.43C194.165 398.695 196.403 396.458 199.138 396.458C201.873 396.458 204.111 398.695 204.111 401.43V405.159H194.165V401.43ZM209.084 417.589C209.084 418.335 208.586 418.832 207.841 418.832H190.435C189.69 418.832 189.192 418.335 189.192 417.589V408.888C189.192 408.142 189.69 407.645 190.435 407.645H207.841C208.586 407.645 209.084 408.142 209.084 408.888V417.589Z" fill="black"/>
<mask id="mask4_745_4401" style="mask-type:luminance" maskUnits="userSpaceOnUse" x="186" y="393" width="26" height="29">
<path d="M207.841 405.159H206.597V401.43C206.597 397.328 203.241 393.972 199.138 393.972C195.035 393.972 191.679 397.328 191.679 401.43V405.159H190.435C188.322 405.159 186.706 406.775 186.706 408.888V417.589C186.706 419.702 188.322 421.318 190.435 421.318H207.841C209.954 421.318 211.57 419.702 211.57 417.589V408.888C211.57 406.775 209.954 405.159 207.841 405.159ZM194.165 401.43C194.165 398.695 196.403 396.458 199.138 396.458C201.873 396.458 204.111 398.695 204.111 401.43V405.159H194.165V401.43ZM209.084 417.589C209.084 418.335 208.586 418.832 207.841 418.832H190.435C189.69 418.832 189.192 418.335 189.192 417.589V408.888C189.192 408.142 189.69 407.645 190.435 407.645H207.841C208.586 407.645 209.084 408.142 209.084 408.888V417.589Z" fill="#283046"/>
</mask>
<g mask="url(#mask4_745_4401)">
<path d="M214.057 392.729H184.219V422.561H214.057V392.729Z" fill="#283046"/>
</g>
<path d="M233.265 179.646H295.44C298.754 179.646 301.44 182.333 301.44 185.646V235.376C301.44 238.69 298.754 241.376 295.44 241.376H233.265C229.951 241.376 227.265 238.69 227.265 235.376V185.646C227.265 182.333 229.951 179.646 233.265 179.646Z" fill="#BAF3C4"/>
<mask id="mask5_745_4401" style="mask-type:luminance" maskUnits="userSpaceOnUse" x="227" y="179" width="75" height="63">
<path d="M233.265 179.646H295.44C298.754 179.646 301.44 182.333 301.44 185.646V235.376C301.44 238.69 298.754 241.376 295.44 241.376H233.265C229.951 241.376 227.265 238.69 227.265 235.376V185.646C227.265 182.333 229.951 179.646 233.265 179.646Z" fill="white"/>
</mask>
<g mask="url(#mask5_745_4401)">
<path d="M259.989 212.136C265.411 212.136 269.807 207.772 269.807 202.389C269.807 197.006 265.411 192.642 259.989 192.642C254.567 192.642 250.172 197.006 250.172 202.389C250.172 207.772 254.567 212.136 259.989 212.136Z" fill="white"/>
</g>
<mask id="mask6_745_4401" style="mask-type:luminance" maskUnits="userSpaceOnUse" x="227" y="179" width="75" height="63">
<path d="M233.265 179.646H295.44C298.754 179.646 301.44 182.333 301.44 185.646V235.376C301.44 238.69 298.754 241.376 295.44 241.376H233.265C229.951 241.376 227.265 238.69 227.265 235.376V185.646C227.265 182.333 229.951 179.646 233.265 179.646Z" fill="#28C76F"/>
</mask>
<g mask="url(#mask6_745_4401)">
<path d="M237.628 287.944C257.207 287.944 273.079 272.186 273.079 252.747C273.079 233.309 257.207 217.551 237.628 217.551C218.048 217.551 202.176 233.309 202.176 252.747C202.176 272.186 218.048 287.944 237.628 287.944Z" fill="#28C76F"/>
</g>
<mask id="mask7_745_4401" style="mask-type:luminance" maskUnits="userSpaceOnUse" x="227" y="179" width="75" height="63">
<path d="M233.265 179.646H295.44C298.754 179.646 301.44 182.333 301.44 185.646V235.376C301.44 238.69 298.754 241.376 295.44 241.376H233.265C229.951 241.376 227.265 238.69 227.265 235.376V185.646C227.265 182.333 229.951 179.646 233.265 179.646Z" fill="#69E09E"/>
</mask>
<g mask="url(#mask7_745_4401)">
<path d="M301.985 285.778C325.179 285.778 343.982 267.353 343.982 244.625C343.982 221.897 325.179 203.472 301.985 203.472C278.792 203.472 259.989 221.897 259.989 244.625C259.989 267.353 278.792 285.778 301.985 285.778Z" fill="#69E09E"/>
</g>
<g filter="url(#filter2_d_745_4401)">
<path d="M335.478 154.738H445.72C451.228 154.738 455.698 159.191 455.72 164.698L456.295 309.31C456.317 314.833 451.858 319.328 446.335 319.35C446.322 319.35 446.309 319.35 446.295 319.35H336.053C330.545 319.35 326.075 314.897 326.053 309.39L325.478 164.778C325.456 159.255 329.915 154.76 335.438 154.738C335.451 154.738 335.465 154.738 335.478 154.738Z" fill="black"/>
</g>
<path d="M335.478 154.738H445.72C451.228 154.738 455.698 159.191 455.72 164.698L456.295 309.31C456.317 314.833 451.858 319.328 446.335 319.35C446.322 319.35 446.309 319.35 446.295 319.35H336.053C330.545 319.35 326.075 314.897 326.053 309.39L325.478 164.778C325.456 159.255 329.915 154.76 335.438 154.738C335.451 154.738 335.465 154.738 335.478 154.738Z" fill="#313A53"/>
<path opacity="0.33996" d="M370.138 256.537H411.636C413.43 256.537 414.884 257.992 414.884 259.786C414.884 261.581 413.43 263.035 411.636 263.035H370.138C368.343 263.035 366.889 261.581 366.889 259.786C366.889 257.992 368.343 256.537 370.138 256.537Z" fill="#7367F0"/>
<path opacity="0.33996" d="M359.23 273.865H422.544C424.338 273.865 425.793 275.32 425.793 277.114C425.793 278.908 424.338 280.363 422.544 280.363H359.23C357.435 280.363 355.981 278.908 355.981 277.114C355.981 275.32 357.435 273.865 359.23 273.865Z" fill="#7367F0"/>
<g filter="url(#filter3_dd_745_4401)">
<path d="M390.968 232.902C404.87 232.902 416.139 221.465 416.139 207.357C416.139 193.249 404.87 181.812 390.968 181.812C377.067 181.812 365.798 193.249 365.798 207.357C365.798 221.465 377.067 232.902 390.968 232.902Z" fill="black"/>
</g>
<path d="M390.968 232.902C404.87 232.902 416.139 221.465 416.139 207.357C416.139 193.249 404.87 181.812 390.968 181.812C377.067 181.812 365.798 193.249 365.798 207.357C365.798 221.465 377.067 232.902 390.968 232.902Z" fill="white"/>
<path fill-rule="evenodd" clip-rule="evenodd" d="M396.49 208.32C399.432 208.32 401.817 210.705 401.817 213.647V217.662C401.817 218.387 401.229 218.974 400.505 218.974H382.381C381.657 218.974 381.069 218.387 381.069 217.662V213.647C381.069 210.705 383.454 208.32 386.396 208.32H396.49ZM391.443 193.725C394.999 193.725 397.882 196.587 397.882 200.117C397.882 203.648 394.999 206.51 391.443 206.51C387.887 206.51 385.004 203.648 385.004 200.117C385.004 196.587 387.887 193.725 391.443 193.725Z" fill="#7367F0"/>
<path fill-rule="evenodd" clip-rule="evenodd" d="M515.545 340.072C515.545 340.072 503.347 352.052 504.095 353.223C504.843 354.403 510.991 351.663 510.991 351.663C510.991 351.663 503.321 364.247 504.899 365.214C506.476 366.181 514.545 364.223 517.019 361.629C519.494 359.035 523.313 345.945 523.313 345.945L541.865 311.45L528.41 306.827L515.545 340.072Z" fill="url(#paint2_linear_745_4401)"/>
<path fill-rule="evenodd" clip-rule="evenodd" d="M503.088 276.306C508.211 284.208 525.455 306.729 525.455 306.729C525.455 306.729 525.036 308.226 524.198 311.222L540.045 322.008C543.046 313.776 544.677 309.081 544.938 307.923C546.226 302.193 520.192 265.626 514.362 260.342C505.184 252.022 495.26 264.229 503.088 276.306Z" fill="#FD8715"/>
<path fill-rule="evenodd" clip-rule="evenodd" d="M529.576 312.707C529.773 312.326 528.408 310.306 525.48 306.648L524.736 309.316C527.766 311.959 529.379 313.089 529.576 312.707Z" fill="black" fill-opacity="0.159856"/>
<path fill-rule="evenodd" clip-rule="evenodd" d="M524.1 309.714L540.936 322.479L537.184 330.734L522.464 314.478L524.1 309.714Z" fill="#FFEDC2"/>
<path fill-rule="evenodd" clip-rule="evenodd" d="M513.473 542.024L512.537 557.842L524.525 558.152L522.272 542.024H513.473Z" fill="url(#paint3_linear_745_4401)"/>
<path fill-rule="evenodd" clip-rule="evenodd" d="M525.093 548.256C525.093 548.256 524.756 557.782 526.743 561.108C528.743 564.433 529.349 567.012 529.437 569.001C529.532 571.133 529.329 573.065 529.329 573.065H509.488C509.488 573.065 508.992 563.042 510.306 561.152C511.62 559.263 512.482 559.23 512.482 557.56C512.492 555.89 512.776 548.318 512.776 548.318L525.093 548.256Z" fill="#391B0B"/>
<path fill-rule="evenodd" clip-rule="evenodd" d="M471.24 330.841L502.336 327.485L502.793 327.906C505.01 330.003 514.641 339.739 517.409 353.048C522.633 378.173 515.641 424.578 515.795 434.753C515.943 444.929 520.786 451.069 522.799 465.456C524.812 479.843 525.002 544.143 525.002 544.143C519.665 547.283 514.97 547.507 508.607 543.955L471.24 330.841Z" fill="#4E3319"/>
<path fill-rule="evenodd" clip-rule="evenodd" d="M499.017 489.256L471.24 330.841L488.529 328.975C489.3 384.008 500.052 458.397 499.017 489.256Z" fill="white" fill-opacity="0.192499"/>
<path fill-rule="evenodd" clip-rule="evenodd" d="M477.609 540.361L467.387 540.526C467.835 547.548 466.749 552.249 464.128 554.628L463.914 554.815C459.168 558.764 477.476 557.339 477.476 557.339L477.609 540.361Z" fill="url(#paint4_linear_745_4401)"/>
<path fill-rule="evenodd" clip-rule="evenodd" d="M478.151 548.573L477.857 573.056L470.578 573.061L470.515 567.028C470.515 567.028 468.219 572.653 464.71 572.978C461.191 573.303 445.509 573.104 445.509 573.104C445.509 573.104 444.206 567.456 452.012 564.891C458.505 562.759 465.684 548.573 465.684 548.573H478.151Z" fill="#391B0B"/>
<path fill-rule="evenodd" clip-rule="evenodd" d="M455.814 333.019L490.733 331.844L490.994 332.323C492.688 335.514 501.972 354.195 499.105 375.428C495.082 405.232 484.852 440.171 484.352 445.509C483.459 455.025 485.245 461.915 485.977 471.744C486.709 481.573 483.185 543.391 483.185 543.391C478.003 546.485 471.837 547.092 463.998 543.484C459.28 487.507 456.904 455.088 456.869 446.229C456.817 432.941 455.814 333.019 455.814 333.019Z" fill="#604021"/>
<path fill-rule="evenodd" clip-rule="evenodd" d="M463 365.255L462.768 367.463C460.441 390.748 460.458 440.198 461.36 447.824L461.483 448.807C462.483 457.412 462.515 479.26 461.58 514.35L460.364 499.208C458.058 470.072 456.893 452.412 456.869 446.229L456.827 439.83C456.626 413.956 455.814 333.018 455.814 333.018L463.179 332.771C463.966 345.547 463.906 356.375 463 365.255Z" fill="white" fill-opacity="0.192499"/>
<path fill-rule="evenodd" clip-rule="evenodd" d="M469.129 222.653C464.833 223.12 465.137 230.619 470.368 231.011C471.437 238.24 475.249 241.684 479.897 242.083L479.639 253.018L500.199 253.006C500.199 253.006 494.409 245.281 494.698 234.706C494.986 224.13 494.504 214.196 494.504 214.196L467.875 214.67L469.129 222.653Z" fill="url(#paint5_linear_745_4401)"/>
<path fill-rule="evenodd" clip-rule="evenodd" d="M468.194 223.215C473.199 221.25 476.895 229.709 480.724 235.589C484.553 241.468 494.473 240.469 495.841 235.589C501.017 224.899 505.477 210.367 499.437 209.174C498.587 193.726 457.859 197.373 468.194 223.215Z" fill="#8B5030"/>
<path fill-rule="evenodd" clip-rule="evenodd" d="M496.445 203.327C498.19 204.798 499.304 206.752 499.437 209.174C505.477 210.367 501.017 224.899 495.841 235.589C494.569 240.127 485.902 241.309 481.614 236.725C477.704 225.094 479.374 212.09 487.28 203.329L496.445 203.327Z" fill="black" fill-opacity="0.199355"/>
<path d="M490.696 208.203C493.407 208.203 495.604 206.021 495.604 203.329C495.604 200.638 493.407 198.456 490.696 198.456C487.985 198.456 485.787 200.638 485.787 203.329C485.787 206.021 487.985 208.203 490.696 208.203Z" fill="#FB9934"/>
<path fill-rule="evenodd" clip-rule="evenodd" d="M463.735 255.135C459.148 261.825 451.504 284.529 451.07 289.637C450.582 295.529 456.944 304.914 457.049 313.444C457.142 321.974 452.303 347.658 453.757 350.058C455.199 352.457 496.553 363.079 499.251 363.022C501.938 362.964 518.901 348.506 516.772 343.51C514.632 338.514 504.7 326.099 505.711 319.291C506.712 312.485 512.52 287.36 515.405 278.809C518.277 270.257 517.32 261.279 511.958 257.6C509.305 255.779 502.225 250.606 489.618 250.629C477.011 250.654 464.091 254.617 463.735 255.135Z" fill="#FD8715"/>
<path fill-rule="evenodd" clip-rule="evenodd" d="M477.97 250.141C477.616 252.059 478.214 253.018 479.762 253.018C482.085 253.018 497.664 253.527 499.774 252.617C501.18 252.011 501.672 251.185 501.25 250.141H477.97Z" fill="#FFF6E1"/>
<path fill-rule="evenodd" clip-rule="evenodd" d="M457.078 269.604L457.219 269.533C465.714 265.323 470.816 265.137 472.527 268.975C474.737 273.937 469.004 285.858 455.326 304.74C453.448 299.013 450.746 293.553 451.07 289.637C451.321 286.681 453.987 277.832 457.078 269.604Z" fill="black" fill-opacity="0.159856"/>
<path fill-rule="evenodd" clip-rule="evenodd" d="M400.413 255.658C400.413 255.658 398.883 252.36 396.477 251.468C394.072 250.576 390.393 244.665 390.962 242.949C391.531 241.233 396.507 236.473 396.507 236.473C396.507 236.473 392.108 224.753 394.056 223.43C395.777 222.261 402.291 237.023 402.291 237.023C402.291 237.023 406.121 237.596 407.004 239.106C409.232 242.91 407.548 251.468 407.548 251.468L430.156 284.267L419.782 297.472L400.413 255.658Z" fill="url(#paint6_linear_745_4401)"/>
<path fill-rule="evenodd" clip-rule="evenodd" d="M458.124 258.201C450.478 264.945 431.777 282.836 431.777 282.836C431.777 282.836 430.85 281.427 428.998 278.609L415.012 292.828C422.046 303.186 426.708 308.401 428.998 308.473C437.95 308.756 453.989 291.976 469.068 278.874C482.588 267.126 472.377 245.631 458.124 258.201Z" fill="#FD8715"/>
<path fill-rule="evenodd" clip-rule="evenodd" d="M431.832 282.857C428.335 286.873 426.442 288.662 426.153 288.224C425.865 287.786 427.184 285.126 430.111 280.244L431.832 282.857Z" fill="black" fill-opacity="0.159856"/>
<path fill-rule="evenodd" clip-rule="evenodd" d="M430.672 279.567L414.451 297.472L409.454 287.254L427.586 275.957L430.672 279.567Z" fill="#FFEDC2"/>
<path fill-rule="evenodd" clip-rule="evenodd" d="M489.835 199.45C489.835 199.45 494.429 193.51 499.733 195.069C505.037 196.627 509.834 206.18 507.556 215.159C505.29 224.14 507.159 229.262 509.909 235.315C517.295 251.595 491.721 261.933 491.721 261.933C493.052 253.89 492.423 247.441 489.835 242.584C485.838 235.082 483.568 225.461 483.568 219.574C483.568 209.336 489.835 199.45 489.835 199.45Z" fill="#8B5030"/>
<path fill-rule="evenodd" clip-rule="evenodd" d="M432.337 134.277C450.817 123.705 469.55 124.331 488.492 134.277L487.292 147.546C485.666 165.529 475.721 181.716 460.415 191.295C444.445 181.783 434.212 164.989 433.08 146.435L432.337 134.277Z" fill="#28C76F"/>
<path d="M460.415 170.928C468.873 170.928 475.73 164.121 475.73 155.723C475.73 147.326 468.873 140.519 460.415 140.519C451.957 140.519 445.1 147.326 445.1 155.723C445.1 164.121 451.957 170.928 460.415 170.928Z" fill="#1CA258"/>
<path fill-rule="evenodd" clip-rule="evenodd" d="M460.196 144.922C465.067 144.922 469.284 148.182 470.507 152.778C470.602 153.133 470.388 153.497 470.03 153.591C469.673 153.685 469.306 153.473 469.211 153.118C468.143 149.103 464.456 146.252 460.196 146.252C455.048 146.252 450.875 150.381 450.875 155.472C450.875 158.346 451.824 160.93 453.734 163.247C453.969 163.531 453.926 163.95 453.64 164.183C453.354 164.416 452.932 164.374 452.697 164.089C450.593 161.537 449.535 158.656 449.535 155.472C449.535 149.645 454.309 144.922 460.196 144.922Z" fill="white"/>
<path fill-rule="evenodd" clip-rule="evenodd" d="M457.827 148.664C461.619 147.367 465.713 149.243 467.111 152.912L467.188 153.122C467.907 155.195 468.885 156.133 470.136 156.117C470.506 156.113 470.809 156.407 470.814 156.774C470.819 157.141 470.523 157.443 470.153 157.448C468.288 157.471 466.903 156.203 466.011 153.807L465.921 153.555C464.843 150.449 461.432 148.838 458.263 149.921C455.41 150.897 453.885 154.344 454.555 157.383C454.686 157.975 454.851 158.506 455.063 159.018L455.255 159.46C455.891 160.856 456.718 161.903 460.453 166.36C460.69 166.643 460.651 167.062 460.367 167.297C460.082 167.532 459.66 167.494 459.423 167.211L457.42 164.808C455.016 161.896 454.473 161.066 453.867 159.626L453.824 159.525C453.582 158.94 453.393 158.334 453.246 157.668C452.441 154.017 454.272 149.879 457.827 148.664Z" fill="white"/>
<path fill-rule="evenodd" clip-rule="evenodd" d="M459.375 152.255C461.339 151.583 463.512 152.632 464.123 154.593C465.003 157.418 466.623 159.173 469.015 159.927C469.368 160.038 469.563 160.412 469.451 160.762C469.339 161.112 468.963 161.306 468.61 161.195C465.779 160.303 463.847 158.21 462.842 154.986C462.458 153.753 461.07 153.083 459.811 153.513C458.472 153.971 457.808 155.254 458.174 157.01C458.359 157.903 459.094 159.119 460.345 160.703L460.558 160.971C460.734 161.19 460.918 161.414 461.118 161.653L463.271 164.182C463.507 164.465 463.467 164.885 463.182 165.119C462.897 165.353 462.474 165.313 462.239 165.03L460.516 163.012L460.085 162.501C459.881 162.256 459.692 162.026 459.511 161.801L459.077 161.252C457.831 159.642 457.089 158.372 456.861 157.279C456.364 154.891 457.373 152.939 459.375 152.255Z" fill="white"/>
<path fill-rule="evenodd" clip-rule="evenodd" d="M460.567 155.878C460.921 155.771 461.296 155.968 461.404 156.319C462.127 158.66 463.541 160.321 466.201 162.304C466.497 162.525 466.557 162.942 466.334 163.235C466.112 163.529 465.692 163.589 465.396 163.368C462.53 161.231 460.943 159.368 460.123 156.709C460.015 156.358 460.214 155.986 460.567 155.878Z" fill="white"/>
<defs>
<filter id="filter0_f_745_4401" x="0" y="222.488" width="106.993" height="106.614" filterUnits="userSpaceOnUse" color-interpolation-filters="sRGB">
<feFlood flood-opacity="0" result="BackgroundImageFix"/>
<feBlend mode="normal" in="SourceGraphic" in2="BackgroundImageFix" result="shape"/>
<feGaussianBlur stdDeviation="2" result="effect1_foregroundBlur_745_4401"/>
</filter>
<filter id="filter1_f_745_4401" x="543.007" y="392.792" width="81.6216" height="81.3552" filterUnits="userSpaceOnUse" color-interpolation-filters="sRGB">
<feFlood flood-opacity="0" result="BackgroundImageFix"/>
<feBlend mode="normal" in="SourceGraphic" in2="BackgroundImageFix" result="shape"/>
<feGaussianBlur stdDeviation="3" result="effect1_foregroundBlur_745_4401"/>
</filter>
<filter id="filter2_d_745_4401" x="305.478" y="135.738" width="186.818" height="220.612" filterUnits="userSpaceOnUse" color-interpolation-filters="sRGB">
<feFlood flood-opacity="0" result="BackgroundImageFix"/>
<feColorMatrix in="SourceAlpha" type="matrix" values="0 0 0 0 0 0 0 0 0 0 0 0 0 0 0 0 0 0 127 0" result="hardAlpha"/>
<feOffset dx="8" dy="9"/>
<feGaussianBlur stdDeviation="14"/>
<feColorMatrix type="matrix" values="0 0 0 0 0.0862745 0 0 0 0 0.113725 0 0 0 0 0.192157 0 0 0 0.7 0"/>
<feBlend mode="normal" in2="BackgroundImageFix" result="effect1_dropShadow_745_4401"/>
<feBlend mode="normal" in="SourceGraphic" in2="effect1_dropShadow_745_4401" result="shape"/>
</filter>
<filter id="filter3_dd_745_4401" x="345.798" y="162.812" width="106.341" height="107.09" filterUnits="userSpaceOnUse" color-interpolation-filters="sRGB">
<feFlood flood-opacity="0" result="BackgroundImageFix"/>
<feColorMatrix in="SourceAlpha" type="matrix" values="0 0 0 0 0 0 0 0 0 0 0 0 0 0 0 0 0 0 127 0" result="hardAlpha"/>
<feOffset dx="8" dy="9"/>
<feGaussianBlur stdDeviation="14"/>
<feColorMatrix type="matrix" values="0 0 0 0 0.0755213 0 0 0 0 0.582569 0 0 0 0 0.878793 0 0 0 0.229458 0"/>
<feBlend mode="normal" in2="BackgroundImageFix" result="effect1_dropShadow_745_4401"/>
<feColorMatrix in="SourceAlpha" type="matrix" values="0 0 0 0 0 0 0 0 0 0 0 0 0 0 0 0 0 0 127 0" result="hardAlpha"/>
<feOffset dy="2"/>
<feGaussianBlur stdDeviation="7.5"/>
<feColorMatrix type="matrix" values="0 0 0 0 0.503982 0 0 0 0 0.700178 0 0 0 0 1 0 0 0 0.233829 0"/>
<feBlend mode="normal" in2="effect1_dropShadow_745_4401" result="effect2_dropShadow_745_4401"/>
<feBlend mode="normal" in="SourceGraphic" in2="effect2_dropShadow_745_4401" result="shape"/>
</filter>
<linearGradient id="paint0_linear_745_4401" x1="3761.85" y1="5095.98" x2="3761.85" y2="-1778.3" gradientUnits="userSpaceOnUse">
<stop stop-color="#FF8C19"/>
<stop offset="1" stop-color="#FFC967"/>
</linearGradient>
<linearGradient id="paint1_linear_745_4401" x1="4261.59" y1="1947.01" x2="4261.59" y2="-1186.07" gradientUnits="userSpaceOnUse">
<stop stop-color="#F8FDFF"/>
<stop offset="1" stop-color="#AAD4FF"/>
</linearGradient>
<linearGradient id="paint2_linear_745_4401" x1="2274.18" y1="-1289.99" x2="2192.23" y2="5824.01" gradientUnits="userSpaceOnUse">
<stop stop-color="#FDC6C6"/>
<stop offset="1" stop-color="#FFCCA1"/>
</linearGradient>
<linearGradient id="paint3_linear_745_4401" x1="1061" y1="87.4354" x2="1153.04" y2="2008.54" gradientUnits="userSpaceOnUse">
<stop stop-color="#FDC6C6"/>
<stop offset="1" stop-color="#FAB2B2"/>
</linearGradient>
<linearGradient id="paint4_linear_745_4401" x1="1108.55" y1="54.7671" x2="1219.75" y2="2107.24" gradientUnits="userSpaceOnUse">
<stop stop-color="#FDC6C6"/>
<stop offset="1" stop-color="#FAB2B2"/>
</linearGradient>
<linearGradient id="paint5_linear_745_4401" x1="1967.21" y1="-880.044" x2="2228.69" y2="3745.57" gradientUnits="userSpaceOnUse">
<stop stop-color="#FDC6C6"/>
<stop offset="1" stop-color="#FFCCA1"/>
</linearGradient>
<linearGradient id="paint6_linear_745_4401" x1="2268.89" y1="-1865.44" x2="2570.32" y2="6963.53" gradientUnits="userSpaceOnUse">
<stop stop-color="#FDC6C6"/>
<stop offset="1" stop-color="#FFCCA1"/>
</linearGradient>
</defs>
</svg>
