<svg width="212" height="366" viewBox="0 0 212 366" fill="none" xmlns="http://www.w3.org/2000/svg">
<path fill-rule="evenodd" clip-rule="evenodd" d="M42.1971 335.778L38.1531 360.206L52.1013 360.132L52.5729 335.395L42.1971 335.778Z" fill="#B8B6C9"/>
<path fill-rule="evenodd" clip-rule="evenodd" d="M37.0459 350.984L36.9471 353.042C35.4577 354.69 34.821 358.095 35.0368 363.258C35.0368 366.712 54.993 366.609 56.1002 363.258C56.478 357.654 55.7994 354.176 54.0643 352.822L54.0535 350.835C54.0465 349.545 53.1742 348.42 51.9226 348.085L49.397 347.409C47.2178 344.239 44.2478 344.351 41.7029 347.805L39.3101 348.323C38.0367 348.598 37.108 349.69 37.0459 350.984Z" fill="#2F2B57"/>
<path fill-rule="evenodd" clip-rule="evenodd" d="M89.5033 143.206C89.5033 143.206 71.4685 242.327 68.3061 252.649C66.1979 259.531 62.2204 288.85 56.3736 340.608L37.43 340.662C37.161 300.819 37.6643 277.697 38.94 271.293C40.8536 261.688 45.1731 245.87 45.1731 245.87C45.1731 245.87 48.3825 188.444 50.3025 175.048C52.2219 161.652 58.3842 141.796 58.3842 141.796L89.5033 143.206Z" fill="#2F2B57"/>
<path fill-rule="evenodd" clip-rule="evenodd" d="M75.7774 216.736L77.5082 203.245L76.2419 206.959C69.9374 225.568 65.6507 240.014 63.3819 250.295C61.4725 258.948 61.0711 273.885 62.1776 295.108L63.4354 284.709C65.2487 269.982 67.0118 257.057 68.2584 252.809L68.3816 252.396C69.553 248.36 72.4714 233.886 75.7774 216.736Z" fill="white" fill-opacity="0.192499"/>
<path fill-rule="evenodd" clip-rule="evenodd" d="M88.0154 339.25L100.746 339.335L100.75 339.692C100.792 341.446 101.27 349.182 106.382 352.152L107.402 352.754C113.158 356.205 121.121 361.754 121.121 361.754L87.0437 362.914L88.0154 339.25Z" fill="#B8B6C9"/>
<path fill-rule="evenodd" clip-rule="evenodd" d="M89.7771 347.914C86.7921 347.639 85.2996 353.368 85.2996 365.1L100.583 365.156L101.618 362.914L102.591 363.305C104.664 364.12 106.136 364.569 107.007 364.654L107.816 364.728C112.101 365.098 118.039 365.272 125.631 365.248L125.656 365.117C125.785 364.322 126.125 360.077 119.526 356.851L119.216 356.702C111.693 353.175 106.18 348.195 104.99 347.532L104.932 347.502C103.866 346.977 104.561 346.68 103.047 347.914C101.532 349.147 101.282 352.389 97.8496 352.491C93.4314 352.622 94.2546 348.326 89.7771 347.914Z" fill="#2F2B57"/>
<path fill-rule="evenodd" clip-rule="evenodd" d="M72.1354 189.923C77.0182 207.538 80.9982 250.554 80.9982 250.554C80.9982 250.554 81.4476 255.085 79.5024 267.638C78.2056 276.007 80.1121 300.552 85.2219 341.274L105.396 341.315C107.055 286.609 107.924 256.379 108.002 250.626C108.187 237.169 112.549 143.868 112.549 143.868L70.5911 142.912C70.5911 142.912 67.2526 172.308 72.1354 189.923Z" fill="#353160"/>
<path fill-rule="evenodd" clip-rule="evenodd" d="M101.553 179.177L101.632 179.522C104.531 191.715 99.5603 245.754 100.975 258.603L101.539 263.2C102.523 271.461 104.187 286.521 106.532 308.38L107.041 290.083C107.508 272.695 107.905 256.333 107.991 251.356L108.002 250.626C108.187 237.169 112.549 143.868 112.549 143.868L104.7 143.691L104.356 145.2C100.892 160.659 99.9571 171.985 101.553 179.177Z" fill="white" fill-opacity="0.192499"/>
<path d="M108.186 350.985L109.151 349.309" stroke="white" stroke-width="2" stroke-linecap="round"/>
<path d="M111.032 352.901L111.998 351.225" stroke="white" stroke-width="2" stroke-linecap="round"/>
<path d="M113.879 354.817L114.844 353.141" stroke="white" stroke-width="2" stroke-linecap="round"/>
<path fill-rule="evenodd" clip-rule="evenodd" d="M102.296 22.1904C106.679 22.6697 106.368 30.3719 101.033 30.7741C99.9431 38.1991 96.0546 41.7366 91.314 42.146L91.5769 53.3766L70.6075 53.3642C70.6075 53.3642 76.5124 45.4305 76.2181 34.5693C75.9237 23.7074 76.4156 13.5041 76.4156 13.5041L103.576 13.9912L102.296 22.1904Z" fill="url(#paint0_linear_5_287)"/>
<path fill-rule="evenodd" clip-rule="evenodd" d="M104.4 17.6151C106.29 18.5276 104.785 22.6517 103.828 22.6517C99.439 20.9163 95.7998 27.1648 93.9498 33.4403C88.696 38.5935 77.0878 38.7076 75.8885 34.3969C71.3481 24.9555 71.1254 11.3036 76.4238 10.2501C72.2647 -0.721425 128.435 -6.46076 104.4 17.6151Z" fill="url(#paint1_linear_5_287)"/>
<path fill-rule="evenodd" clip-rule="evenodd" d="M99.7092 34.9811C99.4936 34.5081 98.2071 37.7466 96.1276 39.4827C93.9756 41.2792 90.7452 41.8053 91.314 42.146C95.68 44.7609 101.467 38.8357 99.7092 34.9811Z" fill="url(#paint2_linear_5_287)"/>
<path fill-rule="evenodd" clip-rule="evenodd" d="M18.7264 74.2922C18.7264 74.2922 19.6477 68.0861 19.3553 64.0023C18.8145 56.4497 19.8487 50.0785 18.1771 49.0874C16.033 47.8163 15.4968 59.0933 15.4968 59.0933C15.4968 59.0933 3.2518 39.1504 0.698986 41.5601C-1.85383 43.9691 3.47128 54.4494 2.62691 57.4797C1.78254 60.5093 10.2203 75.1663 10.2203 75.1663L18.7264 74.2922Z" fill="url(#paint3_linear_5_287)"/>
<path fill-rule="evenodd" clip-rule="evenodd" d="M63.9917 77.8775C63.9917 77.8775 45.4439 106.741 41.3462 112.339C37.0482 118.209 29.4574 120.808 24.0705 111.443C19.3059 103.158 9.10382 82.4122 7.81263 75.963C6.84933 71.1514 16.7163 63.9796 21.4585 71.1696C26.2008 78.359 33.6904 89.1707 33.6904 89.1707C33.6904 89.1707 46.0064 66.8481 49.8458 61.581C60.1996 47.377 75.9752 60.1318 63.9917 77.8775Z" fill="#7F73FF"/>
<path fill-rule="evenodd" clip-rule="evenodd" d="M33.6904 89.1707L29.6151 96.1905L31.1002 85.3554L33.6904 89.1707Z" fill="black" fill-opacity="0.159856"/>
<path d="M21.1131 71.4019C16.8041 70.0389 12.8586 70.7644 9.71009 76.0693" stroke="#5386BF" stroke-linecap="round"/>
<path fill-rule="evenodd" clip-rule="evenodd" d="M72.8793 47.9042L94.5471 48.0444L95.434 48.4017C99.0083 49.8681 112.283 55.5784 114.756 60.4687C118.888 68.6399 113.444 134.108 115.817 138.058C120.824 146.393 114.284 152.14 92.5523 154.314L91.8891 154.379C69.6277 156.502 49.8781 154.763 53.4619 143.529C57.0466 132.294 46.0788 59.9328 56.3637 54.9345C67.3741 50.2476 72.8793 47.9042 72.8793 47.9042Z" fill="#7F73FF"/>
<path fill-rule="evenodd" clip-rule="evenodd" d="M96.2471 64.4848C93.037 71.4763 99.413 89.6714 115.375 119.07L115.573 112.503C116.095 96.1095 116.863 76.1271 115.899 66.0712C105.817 58.4376 99.2667 57.908 96.2471 64.4848Z" fill="black" fill-opacity="0.159856"/>
<path fill-rule="evenodd" clip-rule="evenodd" d="M96.0047 45.9855C94.6567 45.6177 72.0846 45.9855 71.1878 45.9855C70.291 45.9855 70.291 49.8229 71.1878 49.8229C71.7362 49.8229 78.7363 49.7184 96.0063 49.5093C97.0453 49.4968 98.9505 50.0782 101.722 51.2536C98.8091 47.9867 96.9034 46.2306 96.0047 45.9855Z" fill="url(#paint4_linear_5_287)"/>
<path fill-rule="evenodd" clip-rule="evenodd" d="M187.509 112.877C187.509 112.877 199.326 114.754 201.555 112.91C203.785 111.068 212.664 98.5364 211.694 96.38C210.724 94.2242 202.623 98.7842 201.932 97.4132C201.045 95.6517 205.626 89.3678 201.611 89.0017C200.578 88.9071 199.847 92.775 196.936 95.3225C194.026 97.8706 187 103.522 187 103.522L187.509 112.877Z" fill="url(#paint5_linear_5_287)"/>
<path fill-rule="evenodd" clip-rule="evenodd" d="M112.154 57.5158C122.367 67.2378 136.827 90.1949 139.908 92.2172C142.99 94.2402 181.533 98.3195 185.162 101.612C188.193 104.363 188.466 112.732 185.162 115.053C181.857 117.375 138.462 114.263 130.503 111.943C122.544 109.623 108.912 88.3643 102.822 81.7288C85.7929 63.1718 101.942 47.7944 112.154 57.5158Z" fill="#7F73FF"/>
<path d="M185.854 101.607C187.662 103.923 188.48 107.217 187.238 113.528" stroke="#5386BF" stroke-linecap="round"/>
<defs>
<linearGradient id="paint0_linear_5_287" x1="-1428.31" y1="-1110.34" x2="-1695.24" y2="3640.31" gradientUnits="userSpaceOnUse">
<stop stop-color="#FDC6C6"/>
<stop offset="1" stop-color="#FAB2B2"/>
</linearGradient>
<linearGradient id="paint1_linear_5_287" x1="3555.47" y1="3235.11" x2="-688.525" y2="3235.11" gradientUnits="userSpaceOnUse">
<stop stop-color="#3F4044"/>
<stop offset="1" stop-color="#222735"/>
</linearGradient>
<linearGradient id="paint2_linear_5_287" x1="259.415" y1="486.691" x2="-1397.18" y2="694.385" gradientUnits="userSpaceOnUse">
<stop stop-color="#4D63A0"/>
<stop offset="1" stop-color="#222735"/>
</linearGradient>
<linearGradient id="paint3_linear_5_287" x1="-901.976" y1="-911.557" x2="-1051.18" y2="3115.91" gradientUnits="userSpaceOnUse">
<stop stop-color="#FDC6C6"/>
<stop offset="1" stop-color="#FAB2B2"/>
</linearGradient>
<linearGradient id="paint4_linear_5_287" x1="-1848.46" y1="285.201" x2="-1855.98" y2="381.563" gradientUnits="userSpaceOnUse">
<stop stop-color="#D7FFFF"/>
<stop offset="1" stop-color="#648BF0"/>
</linearGradient>
<linearGradient id="paint5_linear_5_287" x1="-836.264" y1="-598.708" x2="-1025.91" y2="2335.16" gradientUnits="userSpaceOnUse">
<stop stop-color="#FDC6C6"/>
<stop offset="1" stop-color="#FAB2B2"/>
</linearGradient>
</defs>
</svg>
