<svg width="10" height="7" viewBox="0 0 10 7" fill="none" xmlns="http://www.w3.org/2000/svg">
<path d="M0.226975 0.969743C0.367621 0.829139 0.558352 0.750153 0.757225 0.750153C0.956098 0.750153 1.14683 0.829139 1.28748 0.969743L4.99998 4.68224L8.71247 0.969743C8.85393 0.833124 9.04338 0.757528 9.24003 0.759237C9.43667 0.760946 9.62478 0.839822 9.76384 0.978879C9.9029 1.11793 9.98177 1.30604 9.98348 1.50269C9.98519 1.69934 9.90959 1.88879 9.77297 2.03024L5.53022 6.27299C5.38958 6.4136 5.19885 6.49258 4.99998 6.49258C4.8011 6.49258 4.61037 6.4136 4.46973 6.27299L0.226975 2.03024C0.0863718 1.8896 0.00738525 1.69887 0.00738525 1.49999C0.00738525 1.30112 0.0863718 1.11039 0.226975 0.969743Z" fill="black"/>
</svg>
